<svg width="360" height="262" viewBox="0 0 360 262" fill="none" xmlns="http://www.w3.org/2000/svg">
<path d="M2.11188 19.5759C1.16172 18.9497 0.478792 18.134 0.0779429 17.1582C-0.025981 16.9106 -0.025981 16.6484 0.0779429 16.4154C0.181867 16.1678 0.374868 15.993 0.627254 15.8911C0.879641 15.7891 1.14687 15.7891 1.38441 15.8911C1.6368 15.993 1.81496 16.1824 1.91888 16.43C2.17127 17.0562 2.60181 17.5806 3.2105 17.9738C3.8192 18.3671 4.48728 18.571 5.1999 18.571C5.91252 18.571 6.74391 18.3088 7.32292 17.799C7.91677 17.2747 8.21369 16.6484 8.21369 15.9348C8.21369 15.2211 7.96131 14.5802 7.45653 14.2016C7.04084 13.8957 6.1946 13.5753 4.93267 13.2403C3.49258 12.847 2.45334 12.4392 1.8298 11.9877C0.746024 11.2303 0.211559 10.138 0.211559 8.71064C0.211559 7.28329 0.701486 6.36571 1.66649 5.47726C2.64635 4.57424 3.8192 4.1373 5.1999 4.1373C6.58061 4.1373 7.3823 4.45773 8.25823 5.11314C9.14901 5.76856 9.74286 6.62788 10.0695 7.72023C10.1437 7.9824 10.114 8.23 9.99525 8.46304C9.86163 8.69607 9.66863 8.85628 9.40139 8.92911C9.14901 9.00193 8.89662 8.9728 8.64424 8.85628C8.4067 8.7252 8.24339 8.53586 8.16915 8.27369C7.97615 7.60371 7.605 7.06482 7.07053 6.67157C6.53607 6.27832 5.91252 6.08898 5.1999 6.08898C4.48728 6.08898 3.67074 6.35115 3.07689 6.86091C2.48304 7.38524 2.18611 8.01153 2.18611 8.7252C2.18611 9.43887 2.4385 10.0506 2.94327 10.4147C3.34412 10.706 4.17551 11.0264 5.43744 11.376C6.89238 11.7692 7.94646 12.1916 8.57 12.6431C9.65378 13.4151 10.1882 14.522 10.1882 15.9639C10.1882 17.4058 9.69832 18.3088 8.73331 19.1973C7.75346 20.1003 6.58061 20.5372 5.1999 20.5372C3.8192 20.5372 3.07689 20.2314 2.12673 19.6051L2.11188 19.5759Z" fill="white"/>
<path d="M17.3762 8.2599C17.6583 8.2599 17.9107 8.36185 18.1037 8.56576C18.2967 8.7551 18.4006 9.0027 18.4006 9.27943C18.4006 9.55616 18.2967 9.80376 18.1037 9.9931C17.9107 10.197 17.6583 10.299 17.3762 10.299H15.758V19.5039C15.758 19.7806 15.6541 20.0282 15.4611 20.2176C15.2681 20.4069 15.0157 20.5089 14.7336 20.5089C14.4515 20.5089 14.1991 20.4069 14.0061 20.2176C13.7983 20.0282 13.6944 19.7806 13.6944 19.5039V10.299H12.091C11.8089 10.299 11.5565 10.197 11.3486 9.9931C11.1556 9.80376 11.0517 9.55616 11.0517 9.27943C11.0517 9.0027 11.1556 8.7551 11.3486 8.56576C11.5565 8.36185 11.8089 8.2599 12.091 8.2599H13.6944V5.12848C13.6944 4.85175 13.7983 4.60415 14.0061 4.4148C14.1991 4.2109 14.4515 4.10894 14.7336 4.10894C15.0157 4.10894 15.2681 4.2109 15.4611 4.4148C15.6541 4.60415 15.758 4.85175 15.758 5.12848V8.2599H17.3762Z" fill="white"/>
<path d="M29.1765 8.25954C29.4585 8.25954 29.7109 8.3615 29.9039 8.5654C30.0969 8.75475 30.2008 9.00235 30.2008 9.27908V19.5035C30.2008 19.7803 30.0969 20.0279 29.9039 20.2172C29.7109 20.4066 29.4585 20.5085 29.1765 20.5085C28.8944 20.5085 28.642 20.4066 28.449 20.2172C28.2411 20.0279 28.1372 19.7803 28.1372 19.5035V18.9646C26.9792 19.9987 25.6282 20.5085 24.0693 20.5085C22.5105 20.5085 20.9219 19.9114 19.7342 18.717C18.5317 17.5227 17.923 16.0808 17.923 14.3913C17.923 12.7018 18.5317 11.2453 19.7342 10.051C20.9368 8.84213 22.3769 8.24498 24.0693 8.24498C25.7618 8.24498 26.9792 8.75475 28.1372 9.78884V9.26451C28.1372 8.98778 28.2411 8.74018 28.449 8.55084C28.642 8.34693 28.8944 8.24498 29.1765 8.24498V8.25954ZM24.0693 18.484C25.1977 18.484 26.1478 18.0908 26.9495 17.2897C27.7364 16.4886 28.1372 15.5274 28.1372 14.4059C28.1372 13.2844 27.7364 12.3085 26.9495 11.5075C26.1478 10.7064 25.1977 10.3132 24.0693 10.3132C22.941 10.3132 21.9909 10.7064 21.1892 11.5075C20.3875 12.3085 19.9866 13.2844 19.9866 14.4059C19.9866 15.5274 20.3875 16.4886 21.1892 17.2897C21.9909 18.0908 22.941 18.484 24.0693 18.484Z" fill="white"/>
<path d="M38.1274 10.2981C36.999 10.2981 36.0489 10.6914 35.2472 11.4924C34.4455 12.2935 34.0446 13.2693 34.0446 14.3908C34.0446 15.5123 34.4455 16.4736 35.2472 17.2746C36.0489 18.0757 36.999 18.469 38.1274 18.469C39.2557 18.469 40.5918 17.9009 41.4232 16.7794C41.5865 16.561 41.8092 16.4153 42.1062 16.3716C42.1655 16.3571 42.2398 16.3425 42.2992 16.3425C42.507 16.3425 42.7 16.4008 42.8782 16.5318C43.1157 16.6921 43.2493 16.9105 43.2939 17.1873C43.3087 17.2455 43.3235 17.3183 43.3235 17.3766C43.3235 17.5805 43.2642 17.7698 43.1305 17.9446C41.8983 19.6341 40.2355 20.4789 38.157 20.4789C36.0786 20.4789 35.0096 19.8817 33.8219 18.6874C32.6194 17.4931 32.0107 16.0512 32.0107 14.3617C32.0107 12.6722 32.6194 11.2157 33.8219 10.0214C35.0245 8.81252 36.4646 8.21537 38.157 8.21537C39.8495 8.21537 41.8983 9.06012 43.1305 10.7496C43.2642 10.9244 43.3235 11.1283 43.3235 11.3322C43.3235 11.5361 43.3235 11.4487 43.2939 11.5216C43.2493 11.7983 43.1157 12.0168 42.8782 12.1915C42.7 12.3226 42.507 12.3809 42.2992 12.3809C42.0913 12.3809 42.1804 12.3809 42.1062 12.3663C41.8241 12.3226 41.5865 12.1915 41.4232 11.9585C40.6067 10.837 39.5081 10.2836 38.1274 10.2836V10.2981Z" fill="white"/>
<path d="M53.6744 18.7465C53.8823 18.9359 53.9862 19.1835 54.001 19.4456C54.0159 19.7224 53.9268 19.97 53.7189 20.1884C53.5259 20.4069 53.2587 20.5089 52.9618 20.5089C52.6649 20.5089 52.457 20.4215 52.264 20.2321L47.0975 15.6005V19.4748C47.0975 19.7515 46.9936 19.9991 46.8006 20.203C46.5927 20.3923 46.3552 20.4943 46.0731 20.4943C45.791 20.4943 45.5387 20.3923 45.3308 20.203C45.1378 19.9991 45.0339 19.7515 45.0339 19.4748V5.12848C45.0339 4.85175 45.1378 4.60415 45.3308 4.40024C45.5387 4.2109 45.791 4.10894 46.0731 4.10894C46.3552 4.10894 46.5927 4.2109 46.8006 4.40024C46.9936 4.60415 47.0975 4.85175 47.0975 5.12848V12.7604L51.9671 8.5075C52.1749 8.31816 52.4273 8.23077 52.7242 8.24533C53.0063 8.2599 53.2439 8.37642 53.4369 8.58032C53.6299 8.78423 53.7189 9.03183 53.7041 9.32313C53.6893 9.59986 53.5705 9.83289 53.3626 10.0222L48.597 14.1878L53.6744 18.7465Z" fill="white"/>
<path d="M69.3205 11.842C69.6026 11.842 69.855 11.9439 70.0628 12.1333C70.2558 12.3372 70.3598 12.5848 70.3598 12.8615V15.5851C70.3598 17.1872 69.4542 18.4689 67.6578 19.4156C66.2622 20.1439 64.6737 20.508 62.9218 20.508C61.1699 20.508 58.7203 19.7069 57.1169 18.1048C55.5135 16.5027 54.697 14.5801 54.697 12.308C54.697 10.0359 55.4987 8.11338 57.1169 6.51126C58.7203 4.90913 60.6503 4.09351 62.9218 4.09351C65.1933 4.09351 65.9059 4.50132 67.2124 5.30238C68.5188 6.10345 69.5284 7.1958 70.241 8.57945C70.3152 8.7251 70.3449 8.88531 70.3449 9.03096C70.3449 9.17661 70.3301 9.24943 70.2855 9.35139C70.1965 9.61355 70.0183 9.80289 69.7659 9.93398C69.6175 10.0068 69.469 10.0359 69.3057 10.0359C69.1424 10.0359 69.083 10.0214 68.9791 9.97767C68.7118 9.89028 68.504 9.7155 68.3852 9.4679C67.8508 8.43381 67.0936 7.61818 66.1137 7.00646C65.1339 6.4093 64.0798 6.11801 62.9069 6.11801C61.2145 6.11801 59.7595 6.71516 58.5718 7.92404C57.3693 9.13291 56.7606 10.5894 56.7606 12.2935C56.7606 13.9975 57.3693 15.4395 58.5718 16.6483C59.7744 17.8572 61.2145 18.4544 62.9069 18.4544C64.5994 18.4544 65.3566 18.2068 66.4255 17.7116C67.6578 17.1435 68.2665 16.4299 68.2665 15.556V13.8373H63.3078C63.0257 13.8373 62.7733 13.7354 62.5803 13.546C62.3873 13.3421 62.2834 13.1091 62.2834 12.8324C62.2834 12.5556 62.3873 12.308 62.5803 12.1041C62.7733 11.9148 63.0257 11.8128 63.3078 11.8128H69.3057L69.3205 11.842Z" fill="white"/>
<path d="M73.2428 18.7166C72.6638 18.1486 72.2184 17.5077 71.9067 16.7795C71.58 16.0221 71.4019 15.2211 71.4019 14.4054C71.4019 12.7159 72.0106 11.2594 73.2428 10.0651C73.8218 9.49711 74.4899 9.06017 75.2471 8.75431C76.0191 8.43388 76.8356 8.25911 77.6967 8.25911C79.4189 8.25911 80.9035 8.85626 82.1357 10.0651C82.7147 10.6332 83.1601 11.2886 83.4719 12.0168C83.7985 12.7742 83.9767 13.5752 83.9767 14.4054C83.9767 15.2356 83.8727 14.9298 83.6797 15.1191C83.4719 15.323 83.2195 15.425 82.9374 15.425H73.614C73.8515 16.3134 74.3414 17.0417 75.0986 17.6097C75.8558 18.1923 76.7317 18.4836 77.6967 18.4836C79.2259 18.4836 80.4136 18.0175 81.245 17.0999C81.4231 16.896 81.6607 16.7795 81.9576 16.7649C82.2397 16.7649 82.492 16.8377 82.7147 17.0125C82.9226 17.2019 83.0414 17.4349 83.0562 17.7116C83.0711 17.9884 82.982 18.236 82.789 18.4399C81.5419 19.809 79.8494 20.5081 77.6967 20.5081C75.544 20.5081 74.4751 19.9109 73.2428 18.7166ZM81.7794 13.3859C81.5419 12.4829 81.052 11.7546 80.3097 11.1721C79.5376 10.5895 78.6766 10.2982 77.7116 10.2982C76.7465 10.2982 75.8706 10.5895 75.0986 11.1721C74.3563 11.7546 73.8664 12.4975 73.6288 13.3859H81.7943H81.7794Z" fill="white"/>
<path d="M91.3817 8.2308C92.9554 8.2308 94.3064 8.82796 95.4347 10.0368C96.563 11.2311 97.1123 12.6731 97.1123 14.3771V19.5185C97.1123 19.7952 97.0084 20.0283 96.8006 20.2322C96.6076 20.4215 96.3552 20.5235 96.0731 20.5235C95.791 20.5235 95.5386 20.4215 95.3456 20.2322C95.1526 20.0283 95.0487 19.7952 95.0487 19.5185V14.3771C95.0487 13.2411 94.6924 12.2798 93.9798 11.4787C93.2523 10.6777 92.3912 10.2844 91.3817 10.2844C90.3721 10.2844 89.4962 10.6777 88.7836 11.4787C88.071 12.2798 87.7147 13.2556 87.7147 14.3771V19.4894C87.7147 19.7661 87.6107 20.0137 87.4177 20.203C87.2099 20.3924 86.9724 20.4943 86.6903 20.4943C86.4082 20.4943 86.1558 20.3924 85.948 20.203C85.755 20.0137 85.651 19.7661 85.651 19.4894V9.25033C85.651 8.9736 85.755 8.726 85.948 8.53666C86.1558 8.33275 86.4082 8.2308 86.6903 8.2308C86.9724 8.2308 87.2099 8.33275 87.4177 8.53666C87.6107 8.726 87.7147 8.9736 87.7147 9.25033V9.65815C88.7836 8.71144 90.001 8.2308 91.3965 8.2308H91.3817Z" fill="white"/>
<path fill-rule="evenodd" clip-rule="evenodd" d="M104.431 5.65113C102.442 7.6028 101.566 10.2682 101.803 12.8316C101.996 14.9143 102.917 16.8514 104.431 18.337L106.599 20.4635C107.029 20.8859 107.727 20.8859 108.158 20.4635L113.844 14.8852C113.933 14.7978 114.007 14.7104 114.096 14.623C115.417 13.0646 113.057 11.0547 111.602 12.482L107.385 16.6184L106.792 16.0358C104.55 13.8365 104.535 10.1808 106.792 7.96692L112.077 2.78187C112.73 2.14102 112.73 1.10692 112.077 0.480637C111.424 -0.160212 110.37 -0.160212 109.731 0.480637L104.446 5.66569L104.431 5.65113ZM115.016 16.0212L109.716 21.2209C109.063 21.8617 109.063 22.8958 109.716 23.5221C110.37 24.1629 111.424 24.1629 112.062 23.5221L117.362 18.3225C119.352 16.3708 120.213 13.72 119.975 11.142C119.782 9.07384 118.876 7.13673 117.347 5.63656L115.18 3.51011C114.749 3.08773 114.051 3.08773 113.621 3.51011L107.935 9.08841C107.846 9.1758 107.771 9.26319 107.682 9.35057C106.361 10.909 108.722 12.9189 110.177 11.4916L114.393 7.3552L114.987 7.93779C117.229 10.1371 117.243 13.7928 114.987 16.0067L115.016 16.0212Z" fill="url(#paint0_linear_7515_112)"/>
<path d="M1.09408 45.2617V43.6206H3.4262V36.6818H1.09408V35.0407H7.54339V36.6818H5.21127V43.6206H7.54339V45.2617H1.09408ZM10.4457 45.2617V35.0407H12.3604L15.4554 42.3826V35.0407H17.1829V45.2617H15.2683L12.1732 37.9199V45.2617H10.4457ZM29.6672 45.2617V35.0407H32.9063C33.6069 35.0407 34.2259 35.1751 34.7633 35.4438C35.3008 35.7125 35.7183 36.0868 36.0158 36.5667C36.3133 37.0465 36.462 37.6176 36.462 38.2798C36.462 38.9324 36.3133 39.4986 36.0158 39.9785C35.7183 40.4583 35.3008 40.8326 34.7633 41.1013C34.2259 41.3605 33.6069 41.49 32.9063 41.49H31.4523V45.2617H29.6672ZM31.4523 39.8633H32.7191C33.3621 39.8633 33.8372 39.7289 34.1443 39.4602C34.461 39.1819 34.6194 38.7884 34.6194 38.2798C34.6194 37.7519 34.461 37.3536 34.1443 37.0849C33.8372 36.8162 33.3621 36.6818 32.7191 36.6818H31.4523V39.8633ZM38.2847 45.2617L41.1926 35.0407H43.4096L46.3175 45.2617H44.4893L42.3011 37.0561L40.1129 45.2617H38.2847ZM40.0698 42.8432L40.5592 41.2453H44.043L44.5324 42.8432H40.0698ZM48.3993 45.2617V35.0407H51.6383C52.7324 35.0407 53.5914 35.3142 54.2152 35.8613C54.839 36.4083 55.1509 37.1569 55.1509 38.107C55.1509 38.5965 55.0405 39.0283 54.8198 39.4026C54.6087 39.7769 54.3255 40.0744 53.9705 40.2952C53.6154 40.5063 53.2267 40.6263 52.8044 40.6551L52.7468 40.4679C53.4858 40.4967 54.0376 40.6599 54.4023 40.9574C54.767 41.2453 54.9782 41.7204 55.0357 42.3826L55.2805 45.2617H53.4954L53.2795 42.8C53.2507 42.4353 53.1787 42.1522 53.0635 41.9507C52.9579 41.7491 52.79 41.61 52.5597 41.5332C52.3389 41.4564 52.0318 41.418 51.6383 41.418H50.1844V45.2617H48.3993ZM50.1844 39.7769H51.5951C52.1518 39.7769 52.5741 39.6426 52.862 39.3738C53.1595 39.1051 53.3082 38.7212 53.3082 38.2222C53.3082 37.7231 53.1595 37.344 52.862 37.0849C52.5741 36.8162 52.1518 36.6818 51.5951 36.6818H50.1844V39.7769ZM60.3997 45.2617V36.6818H57.5494V35.0407H65.0352V36.6818H62.1848V45.2617H60.3997ZM67.4193 45.2617V35.0407H69.3339L72.429 42.3826V35.0407H74.1565V45.2617H72.2418L69.1468 37.9199V45.2617H67.4193ZM77.2028 45.2617V35.0407H83.5369V36.6818H78.9878V39.3451H83.3642V40.9286H78.9878V43.6206H83.6521V45.2617H77.2028ZM86.3816 45.2617V35.0407H89.6207C90.7148 35.0407 91.5737 35.3142 92.1975 35.8613C92.8214 36.4083 93.1333 37.1569 93.1333 38.107C93.1333 38.5965 93.0229 39.0283 92.8022 39.4026C92.591 39.7769 92.3079 40.0744 91.9528 40.2952C91.5977 40.5063 91.209 40.6263 90.7868 40.6551L90.7292 40.4679C91.4682 40.4967 92.02 40.6599 92.3847 40.9574C92.7494 41.2453 92.9605 41.7204 93.0181 42.3826L93.2628 45.2617H91.4778L91.2618 42.8C91.233 42.4353 91.161 42.1522 91.0459 41.9507C90.9403 41.7491 90.7724 41.61 90.542 41.5332C90.3213 41.4564 90.0142 41.418 89.6207 41.418H88.1667V45.2617H86.3816ZM88.1667 39.7769H89.5775C90.1341 39.7769 90.5564 39.6426 90.8443 39.3738C91.1419 39.1051 91.2906 38.7212 91.2906 38.2222C91.2906 37.7231 91.1419 37.344 90.8443 37.0849C90.5564 36.8162 90.1341 36.6818 89.5775 36.6818H88.1667V39.7769ZM99.3754 45.4921C98.6268 45.4921 97.9742 45.3433 97.4176 45.0458C96.8705 44.7483 96.4387 44.3308 96.122 43.7933C95.8053 43.2463 95.6181 42.6033 95.5605 41.8643L97.3744 41.7635C97.4416 42.2338 97.5615 42.6273 97.7343 42.944C97.9166 43.2511 98.1518 43.4862 98.4397 43.6494C98.7372 43.8029 99.0779 43.8797 99.4618 43.8797C99.8265 43.8797 100.134 43.8317 100.383 43.7358C100.642 43.6398 100.839 43.4958 100.973 43.3039C101.108 43.1119 101.175 42.8816 101.175 42.6129C101.175 42.325 101.108 42.0755 100.973 41.8643C100.839 41.6532 100.599 41.4564 100.254 41.2741C99.9081 41.0917 99.4138 40.9142 98.7708 40.7414C98.0798 40.5591 97.5136 40.348 97.0721 40.108C96.6306 39.8681 96.3043 39.5706 96.0932 39.2155C95.882 38.8508 95.7765 38.3949 95.7765 37.8479C95.7765 37.2337 95.9108 36.701 96.1796 36.25C96.4579 35.7893 96.8562 35.4342 97.3744 35.1847C97.9022 34.9351 98.5309 34.8104 99.2602 34.8104C99.98 34.8104 100.594 34.9495 101.103 35.2279C101.612 35.4966 102.01 35.8853 102.298 36.3939C102.595 36.893 102.778 37.488 102.845 38.179L101.017 38.2654C100.969 37.8911 100.868 37.5696 100.714 37.3009C100.57 37.0225 100.369 36.8066 100.11 36.653C99.8601 36.4995 99.553 36.4227 99.1883 36.4227C98.6988 36.4227 98.3101 36.5475 98.0222 36.797C97.7343 37.0369 97.5903 37.3536 97.5903 37.7471C97.5903 38.0254 97.6527 38.2558 97.7775 38.4381C97.9118 38.6205 98.1374 38.7836 98.4541 38.9276C98.7708 39.0715 99.2171 39.2155 99.7929 39.3594C100.589 39.5706 101.218 39.8201 101.679 40.108C102.149 40.3959 102.485 40.7414 102.686 41.1445C102.888 41.5476 102.989 42.0227 102.989 42.5697C102.989 43.1551 102.84 43.6686 102.542 44.1101C102.245 44.5515 101.827 44.8922 101.29 45.1322C100.753 45.3721 100.114 45.4921 99.3754 45.4921ZM105.2 45.2617V35.0407H106.985V39.9209L106.265 39.3019H111.275L110.555 39.9209V35.0407H112.34V45.2617H110.555V40.324L111.275 40.943H106.265L106.985 40.324V45.2617H105.2ZM115.041 45.2617V43.6206H117.373V36.6818H115.041V35.0407H121.49V36.6818H119.158V43.6206H121.49V45.2617H115.041ZM124.623 45.2617V35.0407H127.862C128.563 35.0407 129.182 35.1751 129.719 35.4438C130.257 35.7125 130.674 36.0868 130.972 36.5667C131.269 37.0465 131.418 37.6176 131.418 38.2798C131.418 38.9324 131.269 39.4986 130.972 39.9785C130.674 40.4583 130.257 40.8326 129.719 41.1013C129.182 41.3605 128.563 41.49 127.862 41.49H126.408V45.2617H124.623ZM126.408 39.8633H127.675C128.318 39.8633 128.793 39.7289 129.1 39.4602C129.417 39.1819 129.575 38.7884 129.575 38.2798C129.575 37.7519 129.417 37.3536 129.1 37.0849C128.793 36.8162 128.318 36.6818 127.675 36.6818H126.408V39.8633ZM143.888 45.2617L142.808 35.0407H144.536L145.27 43.5054H145.097L146.09 36.1924H147.415L148.408 43.5054H148.235L148.97 35.0407H150.697L149.617 45.2617H147.559L146.58 38.3517H146.925L145.946 45.2617H143.888ZM153.024 45.2617V43.6206H155.356V36.6818H153.024V35.0407H159.473V36.6818H157.141V43.6206H159.473V45.2617H153.024ZM164.851 45.2617V36.6818H162.001V35.0407H169.487V36.6818H166.636V45.2617H164.851ZM171.669 45.2617V35.0407H173.454V39.9209L172.735 39.3019H177.744L177.024 39.9209V35.0407H178.81V45.2617H177.024V40.324L177.744 40.943H172.735L173.454 40.324V45.2617H171.669Z" fill="white"/>
<path d="M132.409 90.2062C132.089 90.2062 131.828 89.8507 131.828 89.4172V57.5487C131.828 57.1139 132.089 56.7598 132.409 56.7598C132.729 56.7598 132.99 57.1153 132.99 57.5487V89.4201C132.99 89.8535 132.732 90.2062 132.409 90.2062Z" fill="#6F7C95"/>
<path d="M22.7727 81.3392H20.2048C20.0122 81.3392 19.8564 81.1834 19.8564 80.9908V71.7631C19.8564 70.1739 18.5689 68.8864 16.9811 68.8864H12.6088C11.021 68.8864 9.73209 70.1739 9.73209 71.7631V80.9908C9.73209 81.1834 9.57629 81.3392 9.38508 81.3392H6.81718C6.62455 81.3392 6.46875 81.1834 6.46875 80.9908V71.7631C6.46875 68.3722 9.21653 65.623 12.6073 65.623H16.9797C20.3705 65.623 23.1183 68.3722 23.1183 71.7631V80.9908C23.1183 81.1834 22.9625 81.3392 22.7699 81.3392" fill="#1476FB"/>
<path d="M2.91633 81.3378H0.34843C0.155802 81.3378 0 81.182 0 80.9894V65.9871C0 65.7945 0.155802 65.6387 0.34843 65.6387H2.91633C3.10896 65.6387 3.26476 65.7945 3.26476 65.9871V80.9894C3.26476 81.182 3.10896 81.3378 2.91633 81.3378Z" fill="#1476FB"/>
<path d="M106.698 81.3378H104.13C103.937 81.3378 103.781 81.182 103.781 80.9894V65.9871C103.781 65.7945 103.937 65.6387 104.13 65.6387H106.698C106.89 65.6387 107.046 65.7945 107.046 65.9871V80.9894C107.046 81.182 106.89 81.3378 106.698 81.3378Z" fill="#1476FB"/>
<path d="M99.0285 72.8055C99.5129 72.0902 99.7976 71.2277 99.7976 70.2999V70.0988C99.7976 67.6272 97.7948 65.623 95.3233 65.623H83.8562C83.6636 65.623 83.5078 65.7788 83.5078 65.9701V80.9922C83.5078 81.1848 83.6636 81.3406 83.8562 81.3406H95.7637C98.411 81.3406 100.557 79.1948 100.557 76.5476V76.3054C100.557 74.9244 99.9662 73.6808 99.0285 72.8055ZM86.7711 68.8864H95.3218C95.9918 68.8864 96.5343 69.4289 96.5343 70.0988V70.2999C96.5343 70.9699 95.9918 71.5124 95.3218 71.5124H86.7711V68.8878V68.8864ZM97.2934 76.5462C97.2934 77.3918 96.6079 78.0759 95.7637 78.0759H86.7711V74.7743H95.7637C96.6093 74.7743 97.2934 75.4598 97.2934 76.304V76.5462Z" fill="#1476FB"/>
<path d="M50.2487 65.623H45.8764C44.0946 65.623 42.4912 66.3822 41.3694 67.5961C40.2477 66.3836 38.6443 65.623 36.8625 65.623H32.4902C29.0993 65.623 26.3516 68.3722 26.3516 71.7631V80.9908C26.3516 81.1834 26.5074 81.3392 26.7 81.3392H29.2679C29.4591 81.3392 29.6149 81.1834 29.6149 80.9908V71.7631C29.6149 70.1753 30.9024 68.8864 32.4902 68.8864H36.8625C38.4503 68.8864 39.7392 70.1739 39.7392 71.7631V80.9908C39.7392 81.1834 39.895 81.3392 40.0876 81.3392H42.6555C42.8481 81.3392 43.0025 81.1834 43.0025 80.9908V71.7631C43.0025 70.1739 44.29 68.8864 45.8792 68.8864H50.2516C51.8393 68.8864 53.1268 70.1739 53.1268 71.7631V80.9908C53.1268 81.1834 53.2826 81.3392 53.4752 81.3392H56.0431C56.2358 81.3392 56.3916 81.1834 56.3916 80.9908V71.7631C56.3916 68.3722 53.6424 65.623 50.253 65.623" fill="#1476FB"/>
<mask id="mask0_7515_112" style="mask-type:luminance" maskUnits="userSpaceOnUse" x="58" y="65" width="19" height="8">
<path d="M65.3529 65.6189C61.3162 65.6784 59.0217 68.2293 58.9141 72.1938C58.9141 72.2193 58.9466 72.2306 58.9608 72.2079C60.3574 69.8922 62.8629 68.4786 65.5668 68.4786C66.3019 68.4786 74.4135 68.4829 74.5339 68.4829C75.5948 68.4829 76.388 68.735 76.9517 69.1741C76.9701 69.1882 76.9956 69.1684 76.9842 69.1471C75.9928 67.3342 74.1911 65.6289 72.017 65.6133C72.0113 65.6133 65.3529 65.6175 65.3529 65.6175" fill="white"/>
</mask>
<g mask="url(#mask0_7515_112)">
<path d="M76.997 65.6133H58.9141V72.2292H76.997V65.6133Z" fill="url(#paint1_linear_7515_112)"/>
</g>
<mask id="mask1_7515_112" style="mask-type:luminance" maskUnits="userSpaceOnUse" x="73" y="65" width="9" height="17">
<path d="M73.9347 65.6134C73.912 65.6134 73.9064 65.6445 73.9262 65.6545C76.191 66.7918 78.1711 69.041 78.1711 73.4771C78.1711 77.9132 76.5507 79.9967 74.0593 81.3196C74.0395 81.3295 74.0452 81.3579 74.0678 81.3593C74.5664 81.389 81.0237 81.6695 81.0237 73.4885C81.0237 67.7082 78.1144 65.5879 74.6103 65.5879C74.3879 65.5879 74.1627 65.5964 73.9347 65.6134Z" fill="white"/>
</mask>
<g mask="url(#mask1_7515_112)">
<path d="M72.6172 66.1322L74.1865 84.5253L82.3831 81.1105L80.8152 62.7188L72.6172 66.1322Z" fill="url(#paint2_linear_7515_112)"/>
</g>
<mask id="mask2_7515_112" style="mask-type:luminance" maskUnits="userSpaceOnUse" x="58" y="69" width="19" height="13">
<path d="M62.5817 69.4373C61.3551 69.9755 60.2971 70.8367 59.5223 71.9287C58.249 73.6666 58.7405 77.4993 60.5832 79.495C61.8027 80.7924 63.6298 81.3703 65.3096 81.3505L72.1437 81.3547C72.8533 81.3576 73.553 81.1777 74.1705 80.8293C75.3659 80.1253 76.4466 79.0517 76.9778 77.7826C76.9863 77.7614 76.9608 77.743 76.9438 77.7571C76.8036 77.8733 76.2469 78.4851 73.7725 78.4851H65.3521C62.8069 78.4851 61.7248 77.2104 61.7248 73.4768C61.7248 70.5662 62.3621 69.7418 62.6114 69.4755C62.627 69.4586 62.6114 69.4316 62.5916 69.4316C62.5888 69.4316 62.5845 69.4316 62.5803 69.4345" fill="white"/>
</mask>
<g mask="url(#mask2_7515_112)">
<path d="M50.0156 77.9562L71.6268 86.9218L85.2283 72.8544L63.6171 63.8887L50.0156 77.9562Z" fill="url(#paint3_linear_7515_112)"/>
</g>
<path d="M215.21 71.8901V79.091C215.21 79.2184 215.158 79.3332 215.074 79.4167C214.991 79.5003 214.875 79.5527 214.749 79.5527H210.699C210.572 79.5527 210.456 79.5003 210.372 79.4167C210.288 79.3332 210.237 79.217 210.237 79.091V71.8858C210.237 71.6465 210.206 71.4142 210.148 71.1932C210.09 70.9723 210.004 70.7627 209.895 70.5672C209.691 70.2032 209.406 69.8902 209.063 69.655C208.721 69.4199 208.321 69.2613 207.889 69.2046C207.874 69.2018 207.859 69.2004 207.844 69.199C207.828 69.1976 207.813 69.1961 207.797 69.1947C207.759 69.1905 207.721 69.1876 207.682 69.1848C207.644 69.182 207.604 69.182 207.566 69.1806C206.811 69.1706 206.127 69.4851 205.631 69.9893C205.136 70.4935 204.827 71.1904 204.827 71.9453V79.0896C204.827 79.217 204.775 79.3318 204.691 79.4153C204.607 79.4989 204.491 79.5513 204.365 79.5513H200.316C200.188 79.5513 200.072 79.4989 199.989 79.4153C199.905 79.3318 199.854 79.2156 199.854 79.0896V71.8773C199.854 71.8462 199.854 71.815 199.854 71.7839C199.854 71.7527 199.854 71.7215 199.854 71.6904C199.895 69.9553 200.523 68.3562 201.545 67.0857C202.568 65.8152 203.986 64.8733 205.606 64.4541C205.61 64.4541 205.616 64.4513 205.62 64.4498C205.624 64.4484 205.63 64.447 205.634 64.4456C206.542 64.2275 207.433 64.1722 208.284 64.2544C209.134 64.3365 209.944 64.5589 210.691 64.896C210.736 64.9158 210.781 64.9371 210.827 64.9583C210.872 64.9796 210.916 65.0022 210.961 65.0235C210.984 65.0348 211.005 65.0461 211.026 65.0575C211.048 65.0688 211.07 65.0801 211.092 65.0915C211.114 65.1042 211.138 65.1155 211.161 65.1283C211.184 65.141 211.206 65.1538 211.229 65.1665C212.414 65.8181 213.409 66.7741 214.107 67.9299C214.805 69.0857 215.208 70.4397 215.209 71.8873L215.21 71.8901ZM180.03 79.5187H175.981C175.853 79.5187 175.737 79.4677 175.654 79.3827C175.57 79.2992 175.518 79.183 175.518 79.0556V56.9827C175.518 56.8552 175.569 56.7391 175.654 56.6555C175.737 56.5719 175.853 56.5195 175.981 56.5195H180.03C180.158 56.5195 180.274 56.5705 180.358 56.6555C180.441 56.7391 180.494 56.8552 180.494 56.9827V79.057C180.494 79.1845 180.443 79.3006 180.358 79.3842C180.274 79.4677 180.158 79.5201 180.03 79.5201V79.5187ZM173.519 68.5602V68.6013V68.6423L173.515 68.9936L173.511 69.3449C173.508 69.4723 173.463 69.5814 173.388 69.6607C173.312 69.74 173.205 69.7882 173.08 69.7967C173.072 69.7967 172.974 69.7967 172.878 69.7967C172.781 69.7967 172.688 69.7967 172.688 69.7967H171.242C171.57 70.4525 171.781 71.1012 171.886 71.7527C171.991 72.4042 171.991 73.0586 171.896 73.7243C171.682 75.2342 171.032 76.5316 170.024 77.5131C169.015 78.4947 167.651 79.159 166.01 79.4026C165.494 79.4791 164.973 79.5159 164.449 79.5343C163.925 79.5513 163.398 79.5499 162.871 79.547C162.68 79.547 162.488 79.5456 162.299 79.5456C162.107 79.5456 161.918 79.5456 161.728 79.5499C161.404 79.5555 161.109 79.6703 160.895 79.8601C160.681 80.0513 160.547 80.3176 160.542 80.6263C160.54 80.9068 160.629 81.1334 160.809 81.292C160.989 81.4507 161.258 81.5385 161.61 81.5441C161.775 81.547 162.005 81.547 162.283 81.547C162.561 81.547 162.886 81.547 163.242 81.547C164.231 81.5456 165.454 81.5427 166.542 81.5555C167.63 81.5682 168.582 81.5951 169.025 81.6532C170.287 81.8147 171.33 82.3232 172.093 83.054C172.856 83.7849 173.339 84.7395 173.485 85.789C173.569 86.7366 173.274 87.806 172.95 88.6544C172.626 89.5028 172.27 90.1302 172.233 90.194C172.233 90.194 172.233 90.1926 172.235 90.1911C172.236 90.1897 172.235 90.1911 172.236 90.1897C172.236 90.1911 172.235 90.1926 172.233 90.194C172.232 90.1954 172.23 90.1968 172.23 90.1982C172.194 90.2733 172.14 90.3356 172.07 90.3781C172.001 90.4206 171.917 90.4461 171.822 90.4461C171.822 90.4461 171.815 90.4461 171.813 90.4475C171.81 90.4489 171.807 90.4475 171.804 90.4475H171.655L171.507 90.4447H167.177L167.017 90.4475C167.014 90.4475 167.01 90.4475 167.007 90.4461C167.004 90.4447 167 90.4447 166.997 90.4447C166.862 90.4433 166.749 90.3951 166.668 90.3144C166.587 90.2336 166.538 90.1203 166.535 89.9872C166.535 89.9872 166.537 89.7209 166.538 89.4391C166.539 89.1572 166.541 88.8583 166.542 88.7918C166.542 88.3399 166.443 88.0099 166.228 87.7946C166.012 87.5793 165.684 87.4759 165.225 87.4774C164.309 87.4774 163.391 87.4887 162.474 87.4986C161.557 87.5085 160.64 87.5184 159.722 87.5199C159.521 87.5199 159.32 87.5128 159.119 87.4958C158.919 87.4788 158.719 87.4519 158.521 87.4122C157.54 87.2139 156.711 86.84 156.068 86.2635C155.426 85.6871 154.97 84.908 154.737 83.8982C154.503 82.8855 154.582 81.8614 154.925 80.9436C155.269 80.0258 155.878 79.2142 156.704 78.625C156.836 78.5315 156.969 78.4409 157.103 78.3516C157.238 78.2624 157.373 78.1746 157.504 78.0839C157.533 78.0471 157.523 78.0046 157.503 77.9706C157.483 77.9366 157.455 77.9111 157.449 77.9083C156.089 77.091 155.224 76.0486 154.744 74.8432C154.264 73.6379 154.169 72.2711 154.354 70.8023C154.536 69.3647 155.064 68.1763 155.874 67.2104C156.684 66.2444 157.775 65.4994 159.084 64.9498C159.61 64.7275 160.143 64.5603 160.681 64.4413C161.218 64.3224 161.76 64.2516 162.303 64.2232C162.303 64.2232 164.881 64.2204 167.514 64.2176C170.145 64.2147 172.832 64.2119 173.048 64.2119H173.062C173.193 64.2161 173.304 64.2643 173.383 64.3436C173.463 64.4229 173.509 64.5348 173.514 64.6651L173.516 64.981L173.519 65.2968V65.3747L173.521 65.4526H173.519C173.519 65.9002 173.519 66.4257 173.519 66.9653C173.519 67.505 173.519 68.0574 173.519 68.5574V68.5602ZM166.998 71.8802C166.998 70.9057 166.603 70.0247 165.966 69.3859C165.327 68.7471 164.446 68.3534 163.471 68.3534C162.497 68.3534 161.616 68.7486 160.977 69.3859C160.338 70.0247 159.945 70.9057 159.945 71.8802C159.945 72.8547 160.34 73.7356 160.977 74.3744C161.616 75.0132 162.497 75.407 163.471 75.407C164.446 75.407 165.327 75.0118 165.966 74.3744C166.604 73.7356 166.998 72.8547 166.998 71.8802ZM226.874 73.5133H231.402C231.551 73.5133 231.681 73.5827 231.765 73.6889C231.849 73.7951 231.887 73.9382 231.851 74.0827C231.446 75.7653 230.486 77.2313 229.176 78.2766C227.866 79.3218 226.206 79.9465 224.4 79.9465C222.253 79.9465 220.311 79.0626 218.918 77.6406C217.526 76.2171 216.685 74.254 216.736 72.0955C216.784 70.0771 217.625 68.2415 218.96 66.8945C220.294 65.5475 222.121 64.6878 224.138 64.6198C225.99 64.5575 227.701 65.1538 229.056 66.192C230.41 67.2302 231.408 68.7103 231.834 70.4171C231.871 70.5629 231.834 70.706 231.749 70.8122C231.664 70.9185 231.536 70.9893 231.385 70.9893H226.832C226.813 70.9893 226.796 70.9836 226.781 70.9751C226.765 70.9666 226.752 70.9539 226.744 70.9369C226.51 70.5318 226.175 70.1933 225.772 69.9567C225.37 69.7188 224.901 69.5828 224.4 69.5828C223.602 69.5828 222.884 69.9284 222.39 70.478C221.894 71.0275 221.622 71.781 221.712 72.5969C221.781 73.2272 222.073 73.7937 222.506 74.2186C222.938 74.6421 223.512 74.924 224.144 74.9821C224.713 75.0345 225.25 74.9112 225.706 74.6591C226.162 74.407 226.537 74.0274 226.785 73.5671C226.794 73.5501 226.806 73.5373 226.822 73.5274C226.837 73.5175 226.856 73.5133 226.874 73.5133ZM248.722 72.162C248.726 72.3901 248.722 72.6153 248.706 72.8391C248.691 73.0614 248.667 73.2824 248.633 73.5005C248.616 73.6124 248.558 73.7087 248.477 73.7781C248.396 73.8475 248.29 73.8872 248.177 73.8872H237.888C238.082 74.2767 238.344 74.6251 238.661 74.9169C238.979 75.2087 239.348 75.4424 239.756 75.6038C239.837 75.635 239.918 75.6647 240.001 75.6902C240.085 75.7157 240.168 75.7384 240.255 75.7582C240.269 75.7625 240.283 75.7653 240.297 75.7681C240.311 75.771 240.326 75.7738 240.34 75.7766C240.354 75.7795 240.368 75.7823 240.384 75.7851C240.399 75.788 240.413 75.7908 240.428 75.7936C240.46 75.7993 240.494 75.805 240.527 75.8106C240.559 75.8149 240.593 75.8206 240.627 75.8234C240.639 75.8248 240.649 75.8262 240.66 75.8276C240.671 75.829 240.681 75.8305 240.693 75.8305C240.711 75.8319 240.728 75.8347 240.746 75.8361C240.765 75.8375 240.782 75.839 240.8 75.8404C240.82 75.8418 240.84 75.8432 240.858 75.8446C240.878 75.8446 240.898 75.8475 240.916 75.8475C240.939 75.8475 240.963 75.8475 240.986 75.8475C241.008 75.8475 241.032 75.8475 241.055 75.8475C241.078 75.8475 241.103 75.8475 241.127 75.8475C241.151 75.8475 241.175 75.8475 241.2 75.8446C241.215 75.8446 241.229 75.8446 241.245 75.8418C241.26 75.839 241.275 75.8404 241.29 75.839C241.31 75.839 241.331 75.8361 241.351 75.8347C241.371 75.8333 241.392 75.8305 241.412 75.829C241.428 75.8276 241.442 75.8262 241.457 75.8248C241.473 75.8234 241.487 75.822 241.503 75.8191C241.517 75.8177 241.531 75.8163 241.547 75.8135C241.562 75.8106 241.576 75.8092 241.59 75.8064C241.928 75.7554 242.249 75.6563 242.548 75.516C242.847 75.3758 243.122 75.1945 243.368 74.9806C243.378 74.9721 243.388 74.9665 243.399 74.9622C243.411 74.958 243.422 74.9551 243.435 74.9551H247.569C247.739 74.9551 247.881 75.0444 247.96 75.1718C248.039 75.2993 248.058 75.465 247.984 75.6194C247.362 76.9225 246.384 78.0244 245.174 78.7949C243.964 79.5669 242.525 80.0088 240.98 79.9932C238.918 79.9748 237.038 79.1278 235.666 77.7709C234.292 76.414 233.424 74.5458 233.381 72.4836C233.336 70.3137 234.191 68.3435 235.601 66.9214C237.009 65.4994 238.969 64.6255 241.134 64.6467C243.197 64.668 245.073 65.5164 246.446 66.8747C247.818 68.233 248.685 70.1012 248.728 72.1635L248.722 72.162ZM244.211 70.3519C243.96 69.8477 243.593 69.4114 243.143 69.0786C242.694 68.7471 242.163 68.5191 241.586 68.4313C241.572 68.4285 241.558 68.427 241.542 68.4242C241.528 68.4228 241.513 68.42 241.498 68.4185C241.483 68.4171 241.469 68.4143 241.453 68.4129C241.438 68.4115 241.423 68.41 241.408 68.4086C241.388 68.4058 241.367 68.4044 241.347 68.403C241.327 68.4015 241.306 68.4001 241.286 68.3987C241.27 68.3987 241.256 68.3973 241.241 68.3959C241.225 68.3959 241.211 68.3945 241.195 68.3931C241.171 68.3931 241.147 68.3916 241.123 68.3902C241.099 68.3902 241.075 68.3902 241.051 68.3902C241.027 68.3902 241.004 68.3902 240.981 68.3902C240.959 68.3902 240.935 68.3902 240.912 68.3931C240.892 68.3931 240.872 68.3931 240.854 68.3959C240.836 68.3987 240.814 68.3987 240.796 68.4001C240.777 68.4001 240.76 68.403 240.742 68.4044C240.724 68.4058 240.707 68.4072 240.688 68.41C240.677 68.41 240.667 68.4115 240.656 68.4129C240.644 68.4143 240.634 68.4157 240.623 68.4171C240.589 68.4214 240.557 68.4256 240.523 68.4299C240.49 68.4341 240.456 68.4398 240.423 68.4469C240.408 68.4497 240.394 68.4525 240.379 68.4554C240.365 68.4582 240.351 68.461 240.336 68.4639C240.321 68.4667 240.307 68.4695 240.293 68.4738C240.279 68.478 240.265 68.4795 240.251 68.4837C240.221 68.4908 240.191 68.4979 240.161 68.5049C240.132 68.512 240.102 68.5205 240.074 68.529C240.006 68.5489 239.938 68.5715 239.871 68.5942C239.804 68.6183 239.738 68.6438 239.673 68.6707C239.283 68.835 238.931 69.0672 238.627 69.3534C238.324 69.6395 238.072 69.978 237.885 70.3547H244.208L244.211 70.3519ZM197.824 71.8788V79.0839C197.824 79.2114 197.773 79.3261 197.69 79.4097C197.606 79.4932 197.491 79.5442 197.364 79.5442H194.146C194.019 79.5442 193.904 79.4932 193.82 79.4097C193.737 79.3261 193.686 79.2114 193.686 79.0839V78.6873C193.157 78.9607 192.594 79.176 192.004 79.3218C191.414 79.4677 190.796 79.5456 190.16 79.5456C188.012 79.5456 186.068 78.6618 184.677 77.2383C183.285 75.8149 182.444 73.8504 182.496 71.689C182.546 69.6678 183.391 67.8307 184.728 66.4838C186.067 65.1368 187.897 64.2799 189.918 64.2176C190.623 64.1963 191.308 64.27 191.959 64.4258C192.611 64.583 193.23 64.8224 193.805 65.134C194.948 65.7529 195.915 66.6537 196.615 67.7443C197.314 68.835 197.745 70.1125 197.816 71.4878C197.817 71.519 197.819 71.5516 197.82 71.5842C197.82 71.6167 197.823 71.6479 197.823 71.6805C197.823 71.7145 197.824 71.747 197.824 71.781C197.824 71.815 197.824 71.8476 197.824 71.8816V71.8788ZM193.686 71.8788C193.686 70.9043 193.29 70.0233 192.653 69.3845C192.014 68.7457 191.133 68.352 190.159 68.352C189.184 68.352 188.303 68.7471 187.665 69.3845C187.026 70.0233 186.632 70.9043 186.632 71.8788C186.632 72.8532 187.027 73.7342 187.665 74.373C188.303 75.0118 189.184 75.4056 190.159 75.4056C191.133 75.4056 192.014 75.0104 192.653 74.373C193.292 73.7342 193.686 72.8532 193.686 71.8788Z" fill="url(#paint4_linear_7515_112)"/>
<path d="M262.428 61.2036C261.354 65.9768 260.131 68.8507 253.433 70.3336C253.25 70.3733 253.253 70.6325 253.435 70.6707C259.04 71.8081 261.114 73.8817 262.429 79.7851C262.47 79.9678 262.73 79.965 262.766 79.7809C263.854 74.3137 265.967 71.7387 271.772 70.6551C271.956 70.6212 271.962 70.3605 271.779 70.3181C266.082 68.9937 263.979 67.168 262.765 61.2065C262.728 61.0252 262.469 61.0209 262.429 61.2022L262.428 61.2036ZM262.509 73.5446C262.173 72.0899 261.029 70.9455 259.574 70.6098C259.466 70.5857 259.466 70.4342 259.574 70.4101C261.029 70.0744 262.173 68.93 262.509 67.4754C262.533 67.3677 262.684 67.3677 262.708 67.4754C263.044 68.93 264.188 70.0744 265.643 70.4101C265.751 70.4342 265.751 70.5857 265.643 70.6098C264.188 70.9455 263.044 72.0899 262.708 73.5446C262.684 73.6522 262.533 73.6522 262.509 73.5446Z" fill="url(#paint5_linear_7515_112)"/>
<path d="M257.127 65.401C256.872 64.6022 256.275 63.9874 255.664 63.7438C255.569 63.7056 255.559 63.5838 255.645 63.5328C256.438 63.0682 256.911 61.3346 257.122 60.2737C257.148 60.1491 257.325 60.1476 257.35 60.2737C257.57 61.3261 258.03 63.0611 258.821 63.5314C258.904 63.5809 258.9 63.7013 258.809 63.7368C258.212 63.9747 257.614 64.6092 257.345 65.401C257.309 65.5044 257.159 65.5044 257.127 65.3996V65.401Z" fill="url(#paint6_linear_7515_112)"/>
<path d="M267.835 75.4068C268.032 75.945 268.437 76.36 268.858 76.5427C268.946 76.581 268.96 76.6914 268.882 76.7467C268.365 77.1149 268.017 78.2438 267.844 79.0115C267.817 79.1333 267.643 79.1333 267.616 79.0115C267.447 78.2438 267.123 77.105 266.592 76.7424C266.512 76.6886 266.525 76.5767 266.613 76.5371C267.028 76.3501 267.422 75.9308 267.621 75.4011C267.658 75.3034 267.801 75.3076 267.837 75.4068H267.835Z" fill="url(#paint7_linear_7515_112)"/>
<path d="M205.288 198.821C197.107 198.821 190.379 196.817 185.103 192.811C179.904 188.805 176.731 183.476 175.584 176.823L186.938 174.248C187.779 179.112 189.882 182.796 193.246 185.3C196.61 187.804 200.739 189.056 205.632 189.056C208.461 189.056 210.946 188.591 213.087 187.661C215.304 186.659 217.063 185.264 218.363 183.476C219.663 181.616 220.313 179.541 220.313 177.252C220.313 174.82 219.586 172.817 218.133 171.243C216.757 169.669 214.769 168.274 212.17 167.058C209.646 165.77 206.588 164.483 202.994 163.195C198.33 161.55 194.316 159.761 190.952 157.83C187.664 155.898 185.103 153.609 183.268 150.962C181.509 148.244 180.63 144.989 180.63 141.197C180.63 137.334 181.624 133.936 183.612 131.003C185.676 127.999 188.544 125.638 192.214 123.921C195.884 122.204 200.127 121.346 204.944 121.346C210.067 121.346 214.616 122.455 218.592 124.672C222.645 126.818 225.856 130.073 228.226 134.437L218.936 139.802C217.254 136.941 215.19 134.759 212.743 133.257C210.373 131.755 207.659 131.003 204.6 131.003C202.23 131.003 200.089 131.433 198.178 132.291C196.343 133.149 194.89 134.33 193.819 135.832C192.825 137.263 192.328 138.98 192.328 140.983C192.328 143.057 192.94 144.846 194.163 146.348C195.463 147.85 197.337 149.21 199.783 150.426C202.306 151.57 205.441 152.786 209.188 154.074C213.928 155.791 217.981 157.651 221.345 159.654C224.709 161.585 227.309 163.91 229.144 166.629C230.979 169.347 231.896 172.674 231.896 176.608C231.896 180.9 230.749 184.728 228.455 188.09C226.238 191.381 223.142 193.992 219.166 195.923C215.19 197.855 210.564 198.821 205.288 198.821Z" fill="#3FD9FB"/>
<path d="M241.915 197.533V122.741H266.573C272.843 122.741 277.928 123.599 281.827 125.316C285.803 127.033 288.708 129.501 290.544 132.72C292.455 135.868 293.411 139.624 293.411 143.987C293.411 150.426 291.423 155.469 287.447 159.117C283.547 162.766 277.889 164.876 270.473 165.448C269.173 165.52 267.682 165.556 266 165.556C264.318 165.556 262.751 165.556 261.298 165.556H253.614V197.533H241.915ZM286.185 197.533L265.656 164.268L277.584 162.873L299.604 197.533H286.185ZM253.614 155.898H265.427C268.638 155.898 271.429 155.541 273.799 154.825C276.246 154.038 278.195 152.786 279.648 151.07C281.101 149.353 281.827 147.028 281.827 144.095C281.827 141.162 281.101 138.872 279.648 137.227C278.195 135.51 276.246 134.294 273.799 133.579C271.352 132.863 268.561 132.506 265.427 132.506H253.614V155.898Z" fill="#3FD9FB"/>
<path d="M306.682 197.859V122.762H359.421V132.567H318.351V154.546H355.989V164.351H318.351V188.054H359.421V197.859H306.682Z" fill="#3FD9FB"/>
<path d="M136.838 261.336V120.471H157.972V261.336H136.838Z" fill="white"/>
<path d="M0 261.336L56.1512 120.471H72.52L128.464 261.336H105.465L64.4392 150.382L23.2064 261.336H0ZM33.152 230.01L39.5752 211.619L64.5428 207.401L88.8889 211.619L95.9337 230.01L64.5428 226.235L33.152 230.01Z" fill="white"/>
<path d="M334.036 261.031V215.386H316.429V208.531H359.519V215.386H341.99V261.031H334.036Z" fill="white"/>
<path d="M225.206 261.031V208.531H260.805V215.386H233.083V230.751H258.489V237.606H233.083V254.177H260.805V261.031H225.206Z" fill="white"/>
<path d="M175.035 261.031V208.531H183.221L210.017 251.089H208.164V208.531H215.963V261.031H207.623L181.059 218.399H182.912V261.031H175.035Z" fill="white"/>
<path d="M311.593 261.487H303.237L291.951 244.038L292.755 242.794L296.161 237.999L311.593 261.487Z" fill="url(#paint8_linear_7515_112)" fill-opacity="0.973695"/>
<path d="M296.161 232.183L292.755 227.474L291.958 226.235L302.906 209.211H311.188L296.161 232.183Z" fill="url(#paint9_linear_7515_112)" fill-opacity="0.973695"/>
<path d="M290.026 229.251L294.259 235.103L290.026 241.063L276.811 261.492H268.456L283.928 237.941H266.75V232.391H284.019L268.861 209.216H277.142L290.026 229.251Z" fill="url(#paint10_linear_7515_112)" fill-opacity="0.973695"/>
<defs>
<linearGradient id="paint0_linear_7515_112" x1="110.889" y1="24.0027" x2="110.889" y2="0" gradientUnits="userSpaceOnUse">
<stop stop-color="#A134F0"/>
<stop offset="1" stop-color="#F994EB"/>
</linearGradient>
<linearGradient id="paint1_linear_7515_112" x1="58.9391" y1="69.2288" x2="76.9976" y2="69.2288" gradientUnits="userSpaceOnUse">
<stop stop-color="#A2CF70"/>
<stop offset="0.5" stop-color="#5DA1B3"/>
<stop offset="0.77" stop-color="#2F84DF"/>
<stop offset="1" stop-color="#1476F9"/>
</linearGradient>
<linearGradient id="paint2_linear_7515_112" x1="76.8606" y1="64.0488" x2="83.6323" y2="80.3132" gradientUnits="userSpaceOnUse">
<stop stop-color="#FFD222"/>
<stop offset="0.02" stop-color="#FFD222"/>
<stop offset="0.15" stop-color="#DDC137"/>
<stop offset="0.56" stop-color="#7B897E"/>
<stop offset="0.9" stop-color="#2379E6"/>
<stop offset="1" stop-color="#1476F9"/>
</linearGradient>
<linearGradient id="paint3_linear_7515_112" x1="57.4802" y1="70.8017" x2="73.1096" y2="85.9099" gradientUnits="userSpaceOnUse">
<stop stop-color="#F94B38"/>
<stop offset="0.06" stop-color="#F94B38"/>
<stop offset="0.5" stop-color="#7E6982"/>
<stop offset="0.95" stop-color="#1476F9"/>
<stop offset="1" stop-color="#1476F9"/>
</linearGradient>
<linearGradient id="paint4_linear_7515_112" x1="275.962" y1="124.477" x2="192.511" y2="70.8859" gradientUnits="userSpaceOnUse">
<stop offset="0.05" stop-color="#CC49C9"/>
<stop offset="0.95" stop-color="#6032FF"/>
</linearGradient>
<linearGradient id="paint5_linear_7515_112" x1="296.611" y1="92.3385" x2="213.161" y2="38.7469" gradientUnits="userSpaceOnUse">
<stop offset="0.05" stop-color="#CC49C9"/>
<stop offset="0.95" stop-color="#6032FF"/>
</linearGradient>
<linearGradient id="paint6_linear_7515_112" x1="298.52" y1="89.3421" x2="215.07" y2="35.7503" gradientUnits="userSpaceOnUse">
<stop offset="0.05" stop-color="#CC49C9"/>
<stop offset="0.95" stop-color="#6032FF"/>
</linearGradient>
<linearGradient id="paint7_linear_7515_112" x1="295.028" y1="94.7503" x2="211.578" y2="41.159" gradientUnits="userSpaceOnUse">
<stop offset="0.05" stop-color="#CC49C9"/>
<stop offset="0.95" stop-color="#6032FF"/>
</linearGradient>
<linearGradient id="paint8_linear_7515_112" x1="280.743" y1="209.366" x2="280.743" y2="261.339" gradientUnits="userSpaceOnUse">
<stop stop-color="#3FD9FB"/>
<stop offset="1" stop-color="white"/>
</linearGradient>
<linearGradient id="paint9_linear_7515_112" x1="280.743" y1="209.366" x2="280.743" y2="261.339" gradientUnits="userSpaceOnUse">
<stop stop-color="#3FD9FB"/>
<stop offset="1" stop-color="white"/>
</linearGradient>
<linearGradient id="paint10_linear_7515_112" x1="280.743" y1="209.366" x2="280.743" y2="261.339" gradientUnits="userSpaceOnUse">
<stop stop-color="#3FD9FB"/>
<stop offset="1" stop-color="white"/>
</linearGradient>
</defs>
</svg>
