<svg width="636" height="250" viewBox="0 0 636 250" fill="none" xmlns="http://www.w3.org/2000/svg">
<path d="M362.653 138.409C348.2 138.409 336.314 134.871 326.994 127.794C317.81 120.717 312.204 111.302 310.178 99.5491L330.236 94.9996C331.722 103.593 335.436 110.101 341.379 114.524C347.322 118.947 354.616 121.159 363.26 121.159C368.258 121.159 372.648 120.338 376.43 118.695C380.347 116.925 383.453 114.461 385.75 111.302C388.046 108.016 389.194 104.351 389.194 100.307C389.194 96.0106 387.911 92.4721 385.344 89.6919C382.913 86.9117 379.401 84.4474 374.809 82.299C370.352 80.0243 364.949 77.7496 358.601 75.4748C350.361 72.5682 343.27 69.4089 337.327 65.9968C331.519 62.5847 326.994 58.5407 323.753 53.8649C320.646 49.0627 319.093 43.3126 319.093 36.6148C319.093 29.7906 320.849 23.7879 324.36 18.6065C328.007 13.2988 333.072 9.12846 339.556 6.09549C346.039 3.06251 353.535 1.54602 362.045 1.54602C371.094 1.54602 379.131 3.50482 386.155 7.42242C393.313 11.2136 398.986 16.9637 403.174 24.6725L386.763 34.1505C383.791 29.0956 380.144 25.2412 375.822 22.5873C371.635 19.9334 366.84 18.6065 361.437 18.6065C357.25 18.6065 353.468 19.3648 350.091 20.8812C346.849 22.3977 344.283 24.4829 342.392 27.1368C340.636 29.6642 339.758 32.6972 339.758 36.2357C339.758 39.9005 340.839 43.0599 343 45.7137C345.296 48.3676 348.605 50.7687 352.928 52.9171C357.385 54.939 362.923 57.0874 369.541 59.3621C377.916 62.3951 385.074 65.6808 391.017 69.2193C396.96 72.6314 401.553 76.7386 404.794 81.5408C408.036 86.343 409.657 92.2194 409.657 99.17C409.657 106.752 407.631 113.513 403.579 119.453C399.662 125.266 394.191 129.879 387.168 133.291C380.144 136.703 371.972 138.409 362.653 138.409Z" fill="#3FD9FB"/>
<path d="M427.356 136.134V4.01032H470.916C481.992 4.01032 490.974 5.52681 497.863 8.55978C504.886 11.5928 510.019 15.9527 513.261 21.6395C516.637 27.2 518.326 33.8346 518.326 41.5434C518.326 52.9171 514.814 61.8264 507.79 68.2715C500.902 74.7166 490.907 78.4446 477.805 79.4556C475.509 79.582 472.875 79.6452 469.903 79.6452C466.932 79.6452 464.163 79.6452 461.596 79.6452H448.022V136.134H427.356ZM505.562 136.134L469.295 77.3704L490.366 74.9061L529.266 136.134H505.562ZM448.022 62.5847H468.89C474.563 62.5847 479.493 61.9528 483.68 60.6891C488.003 59.2989 491.447 57.0874 494.013 54.0544C496.579 51.0215 497.863 46.9143 497.863 41.733C497.863 36.5516 496.579 32.5077 494.013 29.6011C491.447 26.5681 488.003 24.4197 483.68 23.156C479.358 21.8922 474.428 21.2604 468.89 21.2604H448.022V62.5847Z" fill="#3FD9FB"/>
<path d="M541.77 136.71V4.04788H634.937V21.3683H562.384V60.1963H628.874V77.5166H562.384V119.39H634.937V136.71H541.77Z" fill="#3FD9FB"/>
<path d="M241.731 248.847V0H279.066V248.847H241.731Z" fill="white"/>
<path d="M0 248.847L99.1941 0H128.111L226.939 248.847H186.309L113.835 52.8397L40.9954 248.847H0ZM58.5648 193.508L69.9117 161.018L114.018 153.567L157.027 161.018L169.472 193.508L114.018 186.838L58.5648 193.508Z" fill="white"/>
<path d="M590.092 248.308V167.672H558.989V155.564H635.11V167.672H604.143V248.308H590.092Z" fill="white"/>
<path d="M397.838 248.308V155.564H460.727V167.672H411.753V194.817H456.634V206.925H411.753V236.199H460.727V248.308H397.838Z" fill="white"/>
<path d="M309.209 248.308V155.564H323.67L371.006 230.743H367.732V155.564H381.511V248.308H366.778L319.85 172.995H323.124V248.308H309.209Z" fill="white"/>
<path d="M550.445 249.113H535.685L515.747 218.288L517.168 216.091L523.185 207.62L550.445 249.113Z" fill="url(#paint0_linear_7318_40)" fill-opacity="0.973695"/>
<path d="M523.184 197.346L517.167 189.026L515.759 186.838L535.1 156.764H549.73L523.184 197.346Z" fill="url(#paint1_linear_7318_40)" fill-opacity="0.973695"/>
<path d="M512.346 192.166L519.824 202.504L512.346 213.032L489.002 249.122H474.241L501.574 207.518H471.227V197.713H501.734L474.957 156.774H489.587L512.346 192.166Z" fill="url(#paint2_linear_7318_40)" fill-opacity="0.973695"/>
<defs>
<linearGradient id="paint0_linear_7318_40" x1="495.948" y1="157.038" x2="495.948" y2="248.851" gradientUnits="userSpaceOnUse">
<stop stop-color="#3FD9FB"/>
<stop offset="1" stop-color="white"/>
</linearGradient>
<linearGradient id="paint1_linear_7318_40" x1="495.948" y1="157.038" x2="495.948" y2="248.851" gradientUnits="userSpaceOnUse">
<stop stop-color="#3FD9FB"/>
<stop offset="1" stop-color="white"/>
</linearGradient>
<linearGradient id="paint2_linear_7318_40" x1="495.948" y1="157.038" x2="495.948" y2="248.851" gradientUnits="userSpaceOnUse">
<stop stop-color="#3FD9FB"/>
<stop offset="1" stop-color="white"/>
</linearGradient>
</defs>
</svg>
