<svg width="21" height="23" viewBox="0 0 21 23" fill="none" xmlns="http://www.w3.org/2000/svg">
<path d="M5.60538 13.4529C5.28774 13.4529 5.02167 13.3453 4.80718 13.13C4.59268 12.9148 4.48505 12.6487 4.4843 12.3318C4.48356 12.015 4.59118 11.7489 4.80718 11.5336C5.02317 11.3184 5.28924 11.2108 5.60538 11.2108C5.92152 11.2108 6.18797 11.3184 6.40471 11.5336C6.62145 11.7489 6.7287 12.015 6.72646 12.3318C6.72422 12.6487 6.61659 12.9152 6.40359 13.1312C6.19058 13.3472 5.92451 13.4544 5.60538 13.4529ZM10.0897 13.4529C9.77205 13.4529 9.50598 13.3453 9.29148 13.13C9.07698 12.9148 8.96936 12.6487 8.96861 12.3318C8.96786 12.015 9.07549 11.7489 9.29148 11.5336C9.50747 11.3184 9.77354 11.2108 10.0897 11.2108C10.4058 11.2108 10.6723 11.3184 10.889 11.5336C11.1058 11.7489 11.213 12.015 11.2108 12.3318C11.2085 12.6487 11.1009 12.9152 10.8879 13.1312C10.6749 13.3472 10.4088 13.4544 10.0897 13.4529ZM14.574 13.4529C14.2564 13.4529 13.9903 13.3453 13.7758 13.13C13.5613 12.9148 13.4537 12.6487 13.4529 12.3318C13.4522 12.015 13.5598 11.7489 13.7758 11.5336C13.9918 11.3184 14.2578 11.2108 14.574 11.2108C14.8901 11.2108 15.1566 11.3184 15.3733 11.5336C15.5901 11.7489 15.6973 12.015 15.6951 12.3318C15.6928 12.6487 15.5852 12.9152 15.3722 13.1312C15.1592 13.3472 14.8931 13.4544 14.574 13.4529ZM2.24215 22.4215C1.62556 22.4215 1.09791 22.2022 0.659193 21.7635C0.220478 21.3247 0.000747384 20.7967 0 20.1794V4.48431C0 3.86772 0.219731 3.34006 0.659193 2.90135C1.09865 2.46263 1.62631 2.2429 2.24215 2.24216H3.36323V1.12108C3.36323 0.803442 3.47085 0.537373 3.6861 0.322874C3.90135 0.108375 4.16741 0.00075125 4.4843 3.86578e-06C4.8012 -0.000743518 5.06764 0.10688 5.28363 0.322874C5.49963 0.538868 5.60688 0.804937 5.60538 1.12108V2.24216H14.574V1.12108C14.574 0.803442 14.6816 0.537373 14.8969 0.322874C15.1121 0.108375 15.3782 0.00075125 15.6951 3.86578e-06C16.012 -0.000743518 16.2784 0.10688 16.4944 0.322874C16.7104 0.538868 16.8176 0.804937 16.8161 1.12108V2.24216H17.9372C18.5538 2.24216 19.0818 2.46189 19.5213 2.90135C19.9608 3.34081 20.1801 3.86846 20.1794 4.48431V20.1794C20.1794 20.796 19.96 21.324 19.5213 21.7635C19.0826 22.2029 18.5546 22.4223 17.9372 22.4215H2.24215ZM2.24215 20.1794H17.9372V8.96861H2.24215V20.1794ZM2.24215 6.72646H17.9372V4.48431H2.24215V6.72646Z" fill="#FF6A50"/>
</svg>
