<svg width="20" height="20" viewBox="0 0 20 20" fill="none" xmlns="http://www.w3.org/2000/svg">
<path d="M19.25 9.625C19.25 14.9407 14.9407 19.25 9.625 19.25C4.30926 19.25 0 14.9407 0 9.625C0 4.30926 4.30926 0 9.625 0C14.9407 0 19.25 4.30926 19.25 9.625ZM1.75598 9.625C1.75598 13.971 5.27906 17.4941 9.625 17.4941C13.971 17.4941 17.4941 13.971 17.4941 9.625C17.4941 5.27906 13.971 1.75598 9.625 1.75598C5.27906 1.75598 1.75598 5.27906 1.75598 9.625Z" fill="#FF6A50"/>
<path d="M9.625 3.5C9.14174 3.5 8.75 3.89175 8.75 4.375V10.0334C8.75 10.0334 8.75 10.2615 8.86086 10.4331C8.93506 10.5786 9.05074 10.705 9.20272 10.7928L13.245 13.1267C13.6636 13.3682 14.1987 13.2248 14.4403 12.8063C14.6819 12.3878 14.5386 11.8527 14.12 11.6111L10.5 9.52105V4.375C10.5 3.89175 10.1083 3.5 9.625 3.5Z" fill="#FF6A50"/>
</svg>
