<svg width="250" height="954" viewBox="0 0 250 954" fill="none" xmlns="http://www.w3.org/2000/svg">
<g clip-path="url(#clip0_1136_3885)">
<g filter="url(#filter0_f_1136_3885)">
<path d="M-238.84 801.817L-239 802L-237.034 802L82.1863 802L84 802L84 801.831L84 152.169L84 152L82.1862 152L-237.034 152L-239 152L-238.84 152.183L43.5715 477L-238.84 801.817Z" fill="url(#paint0_radial_1136_3885)"/>
<path d="M-238.84 801.817L-239 802L-237.034 802L82.1863 802L84 802L84 801.831L84 152.169L84 152L82.1862 152L-237.034 152L-239 152L-238.84 152.183L43.5715 477L-238.84 801.817Z" stroke="white" stroke-width="0.74922"/>
</g>
</g>
<defs>
<filter id="filter0_f_1136_3885" x="-356.924" y="34.525" width="558.399" height="884.95" filterUnits="userSpaceOnUse" color-interpolation-filters="sRGB">
<feFlood flood-opacity="0" result="BackgroundImageFix"/>
<feBlend mode="normal" in="SourceGraphic" in2="BackgroundImageFix" result="shape"/>
<feGaussianBlur stdDeviation="58.55" result="effect1_foregroundBlur_1136_3885"/>
</filter>
<radialGradient id="paint0_radial_1136_3885" cx="0" cy="0" r="1" gradientUnits="userSpaceOnUse" gradientTransform="translate(82.1863 477) rotate(-90) scale(334.531 859.914)">
<stop stop-color="#52D7F6"/>
<stop offset="0.9999" stop-color="#FF6A50" stop-opacity="0.7525"/>
<stop offset="1" stop-color="#F0F7F9" stop-opacity="0.48"/>
</radialGradient>
<clipPath id="clip0_1136_3885">
<rect width="250" height="954" fill="white"/>
</clipPath>
</defs>
</svg>
