<svg width="17" height="23" viewBox="0 0 17 23" fill="none" xmlns="http://www.w3.org/2000/svg">
<path fill-rule="evenodd" clip-rule="evenodd" d="M13.3927 12.0825C14.0829 11.1498 14.5005 10.0437 14.5991 8.88752C14.6976 7.73137 14.4733 6.57055 13.951 5.5344C13.4287 4.49825 12.629 3.62746 11.6409 3.01904C10.6529 2.41061 9.51532 2.08846 8.35497 2.08846C7.19463 2.08846 6.05707 2.41061 5.06903 3.01904C4.08099 3.62746 3.28127 4.49825 2.75897 5.5344C2.23668 6.57055 2.01231 7.73137 2.11087 8.88752C2.20944 10.0437 2.62705 11.1498 3.3172 12.0825L8.35567 18.7991L13.3927 12.0825ZM15.0681 13.3317C15.9898 12.0883 16.5481 10.6133 16.6806 9.07124C16.8132 7.52914 16.5148 5.98053 15.8188 4.59808C15.1227 3.21563 14.0564 2.05368 12.7386 1.2418C11.4208 0.429911 9.90346 0 8.35567 0C6.80788 0 5.29051 0.429911 3.97275 1.2418C2.65499 2.05368 1.58863 3.21563 0.892583 4.59808C0.196533 5.98053 -0.101851 7.52914 0.0307009 9.07124C0.163253 10.6133 0.721531 12.0883 1.64329 13.3317L6.78898 20.1917H3.82968C3.55268 20.1917 3.28702 20.3018 3.09114 20.4976C2.89527 20.6935 2.78523 20.9592 2.78523 21.2362C2.78523 21.5132 2.89527 21.7788 3.09114 21.9747C3.28702 22.1706 3.55268 22.2806 3.82968 22.2806H12.8817C13.1587 22.2806 13.4243 22.1706 13.6202 21.9747C13.8161 21.7788 13.9261 21.5132 13.9261 21.2362C13.9261 20.9592 13.8161 20.6935 13.6202 20.4976C13.4243 20.3018 13.1587 20.1917 12.8817 20.1917H9.92236L15.0681 13.3317ZM8.35567 11.1397C9.09436 11.1397 9.80279 10.8463 10.3251 10.324C10.8475 9.80164 11.1409 9.09321 11.1409 8.35452C11.1409 7.61584 10.8475 6.9074 10.3251 6.38507C9.80279 5.86274 9.09436 5.5693 8.35567 5.5693C7.61698 5.5693 6.90855 5.86274 6.38622 6.38507C5.86389 6.9074 5.57045 7.61584 5.57045 8.35452C5.57045 9.09321 5.86389 9.80164 6.38622 10.324C6.90855 10.8463 7.61698 11.1397 8.35567 11.1397Z" fill="#FF6A50"/>
</svg>
