<svg width="126" height="64" viewBox="0 0 126 64" fill="none" xmlns="http://www.w3.org/2000/svg">
<path d="M0.634134 7.3683C0.348829 7.18024 0.143767 6.93534 0.0234039 6.64232C-0.00780129 6.56797 -0.00780129 6.48925 0.0234039 6.41928C0.0546091 6.34493 0.112562 6.29245 0.188346 6.26184C0.26413 6.23123 0.344371 6.23123 0.415698 6.26184C0.491482 6.29245 0.544976 6.34931 0.576181 6.42365C0.651965 6.61171 0.781244 6.76915 0.964017 6.88723C1.14679 7.00531 1.3474 7.06654 1.56137 7.06654C1.77535 7.06654 2.02499 6.98782 2.19885 6.83475C2.37717 6.67731 2.46632 6.48925 2.46632 6.27496C2.46632 6.06066 2.39054 5.86824 2.23897 5.75453C2.11415 5.66269 1.86005 5.56648 1.48113 5.46589C1.04872 5.34781 0.736665 5.22535 0.549434 5.08978C0.224009 4.86237 0.0635248 4.53436 0.0635248 4.10577C0.0635248 3.67719 0.210635 3.40166 0.500397 3.13489C0.794617 2.86374 1.14679 2.73254 1.56137 2.73254C1.97596 2.73254 2.21668 2.82875 2.4797 3.02556C2.74717 3.22236 2.92549 3.48038 3.02356 3.80839C3.04585 3.88711 3.03693 3.96145 3.00127 4.03143C2.96115 4.1014 2.9032 4.14951 2.82295 4.17137C2.74717 4.19324 2.67139 4.18449 2.5956 4.14951C2.52428 4.11015 2.47524 4.05329 2.45295 3.97457C2.395 3.7734 2.28355 3.61159 2.12307 3.4935C1.96258 3.37542 1.77535 3.31857 1.56137 3.31857C1.3474 3.31857 1.10221 3.39729 0.923896 3.55036C0.745581 3.7078 0.656423 3.89585 0.656423 4.11015C0.656423 4.32444 0.732207 4.50812 0.883775 4.61746C1.00414 4.70492 1.25378 4.80114 1.6327 4.9061C2.06957 5.02418 2.38608 5.15101 2.57331 5.28658C2.89874 5.51837 3.05922 5.85074 3.05922 6.28371C3.05922 6.71667 2.91211 6.98782 2.62235 7.25459C2.32813 7.52574 1.97596 7.65694 1.56137 7.65694C1.14679 7.65694 0.923896 7.5651 0.638592 7.37704L0.634134 7.3683Z" fill="white"/>
<path d="M5.21756 3.97043C5.30226 3.97043 5.37804 4.00105 5.43599 4.06227C5.49394 4.11913 5.52515 4.19347 5.52515 4.27657C5.52515 4.35966 5.49394 4.43401 5.43599 4.49086C5.37804 4.55209 5.30226 4.5827 5.21756 4.5827H4.73165V7.34666C4.73165 7.42975 4.70044 7.5041 4.64249 7.56096C4.58454 7.61781 4.50875 7.64842 4.42405 7.64842C4.33935 7.64842 4.26357 7.61781 4.20562 7.56096C4.14321 7.5041 4.112 7.42975 4.112 7.34666V4.5827H3.63055C3.54585 4.5827 3.47007 4.55209 3.40766 4.49086C3.3497 4.43401 3.3185 4.35966 3.3185 4.27657C3.3185 4.19347 3.3497 4.11913 3.40766 4.06227C3.47007 4.00105 3.54585 3.97043 3.63055 3.97043H4.112V3.03016C4.112 2.94707 4.14321 2.87272 4.20562 2.81587C4.26357 2.75464 4.33935 2.72403 4.42405 2.72403C4.50875 2.72403 4.58454 2.75464 4.64249 2.81587C4.70044 2.87272 4.73165 2.94707 4.73165 3.03016V3.97043H5.21756Z" fill="white"/>
<path d="M8.76081 3.97033C8.84551 3.97033 8.92129 4.00094 8.97924 4.06217C9.0372 4.11902 9.0684 4.19337 9.0684 4.27646V7.34656C9.0684 7.42965 9.0372 7.504 8.97924 7.56085C8.92129 7.6177 8.84551 7.64832 8.76081 7.64832C8.67611 7.64832 8.60032 7.6177 8.54237 7.56085C8.47996 7.504 8.44875 7.42965 8.44875 7.34656V7.18474C8.10104 7.49525 7.69537 7.64832 7.22729 7.64832C6.75922 7.64832 6.28222 7.46901 5.92559 7.11039C5.5645 6.75178 5.38173 6.31882 5.38173 5.81151C5.38173 5.3042 5.5645 4.86686 5.92559 4.50825C6.28668 4.14526 6.7191 3.96595 7.22729 3.96595C7.73549 3.96595 8.10104 4.11902 8.44875 4.42953V4.27209C8.44875 4.18899 8.47996 4.11465 8.54237 4.05779C8.60032 3.99657 8.67611 3.96595 8.76081 3.96595V3.97033ZM7.22729 7.04042C7.56609 7.04042 7.8514 6.92234 8.09212 6.68181C8.32839 6.44127 8.44875 6.15263 8.44875 5.81588C8.44875 5.47913 8.32839 5.18612 8.09212 4.94558C7.8514 4.70505 7.56609 4.58697 7.22729 4.58697C6.8885 4.58697 6.60319 4.70505 6.36247 4.94558C6.12174 5.18612 6.00138 5.47913 6.00138 5.81588C6.00138 6.15263 6.12174 6.44127 6.36247 6.68181C6.60319 6.92234 6.8885 7.04042 7.22729 7.04042Z" fill="white"/>
<path d="M11.4485 4.58245C11.1097 4.58245 10.8244 4.70053 10.5837 4.94106C10.3429 5.1816 10.2226 5.47461 10.2226 5.81136C10.2226 6.14811 10.3429 6.43675 10.5837 6.67729C10.8244 6.91782 11.1097 7.0359 11.4485 7.0359C11.7873 7.0359 12.1885 6.86534 12.4381 6.52859C12.4872 6.46299 12.554 6.41926 12.6432 6.40614C12.661 6.40177 12.6833 6.39739 12.7012 6.39739C12.7636 6.39739 12.8215 6.41489 12.875 6.45425C12.9463 6.50235 12.9865 6.56795 12.9998 6.65105C13.0043 6.66854 13.0087 6.69041 13.0087 6.7079C13.0087 6.76913 12.9909 6.82598 12.9508 6.87846C12.5808 7.38577 12.0815 7.63942 11.4574 7.63942C10.8333 7.63942 10.5123 7.46012 10.1557 7.1015C9.79462 6.74289 9.61184 6.30993 9.61184 5.80262C9.61184 5.29531 9.79462 4.85797 10.1557 4.49936C10.5168 4.13637 10.9492 3.95706 11.4574 3.95706C11.9656 3.95706 12.5808 4.21071 12.9508 4.71802C12.9909 4.7705 13.0087 4.83173 13.0087 4.89296C13.0087 4.95418 13.0087 4.92794 12.9998 4.94981C12.9865 5.0329 12.9463 5.09851 12.875 5.15099C12.8215 5.19035 12.7636 5.20784 12.7012 5.20784C12.6387 5.20784 12.6655 5.20784 12.6432 5.20347C12.5585 5.19035 12.4872 5.15099 12.4381 5.08101C12.193 4.74426 11.8631 4.57808 11.4485 4.57808V4.58245Z" fill="white"/>
<path d="M16.1168 7.11925C16.1792 7.1761 16.2104 7.25045 16.2149 7.32917C16.2193 7.41226 16.1926 7.48661 16.1302 7.55221C16.0722 7.61781 15.992 7.64842 15.9028 7.64842C15.8137 7.64842 15.7513 7.62218 15.6933 7.56533L14.142 6.1746V7.33791C14.142 7.42101 14.1108 7.49536 14.0528 7.55658C13.9904 7.61344 13.9191 7.64405 13.8344 7.64405C13.7497 7.64405 13.6739 7.61344 13.6115 7.55658C13.5535 7.49536 13.5223 7.42101 13.5223 7.33791V3.03016C13.5223 2.94707 13.5535 2.87272 13.6115 2.81149C13.6739 2.75464 13.7497 2.72403 13.8344 2.72403C13.9191 2.72403 13.9904 2.75464 14.0528 2.81149C14.1108 2.87272 14.142 2.94707 14.142 3.03016V5.3218L15.6041 4.04478C15.6666 3.98792 15.7423 3.96168 15.8315 3.96606C15.9162 3.97043 15.9875 4.00542 16.0455 4.06665C16.1034 4.12787 16.1302 4.20222 16.1257 4.28969C16.1213 4.37278 16.0856 4.44275 16.0232 4.49961L14.5922 5.75039L16.1168 7.11925Z" fill="white"/>
<path d="M20.8149 5.04602C20.8996 5.04602 20.9753 5.07663 21.0378 5.13348C21.0957 5.19471 21.1269 5.26906 21.1269 5.35215V6.16997C21.1269 6.65104 20.855 7.03589 20.3156 7.32016C19.8965 7.53883 19.4195 7.64816 18.8935 7.64816C18.3675 7.64816 17.6319 7.40763 17.1505 6.92656C16.669 6.44549 16.4238 5.86821 16.4238 5.18596C16.4238 4.50372 16.6646 3.92644 17.1505 3.44537C17.6319 2.9643 18.2115 2.71939 18.8935 2.71939C19.5756 2.71939 19.7895 2.84184 20.1818 3.08238C20.5741 3.32291 20.8773 3.65092 21.0912 4.06638C21.1135 4.11012 21.1224 4.15822 21.1224 4.20196C21.1224 4.24569 21.118 4.26756 21.1046 4.29817C21.0779 4.37689 21.0244 4.43375 20.9486 4.47311C20.904 4.49497 20.8594 4.50372 20.8104 4.50372C20.7614 4.50372 20.7435 4.49935 20.7123 4.48623C20.6321 4.45999 20.5697 4.40751 20.534 4.33316C20.3735 4.02265 20.1462 3.77774 19.852 3.59406C19.5577 3.41475 19.2412 3.32729 18.8891 3.32729C18.3809 3.32729 17.944 3.50659 17.5874 3.86958C17.2263 4.23257 17.0435 4.66991 17.0435 5.18159C17.0435 5.69327 17.2263 6.12623 17.5874 6.48922C17.9484 6.85221 18.3809 7.03152 18.8891 7.03152C19.3972 7.03152 19.6246 6.95717 19.9456 6.80848C20.3156 6.63792 20.4983 6.42362 20.4983 6.16122V5.64516H19.0094C18.9247 5.64516 18.8489 5.61455 18.791 5.5577C18.733 5.49647 18.7018 5.4265 18.7018 5.3434C18.7018 5.26031 18.733 5.18596 18.791 5.12474C18.8489 5.06788 18.9247 5.03727 19.0094 5.03727H20.8104L20.8149 5.04602Z" fill="white"/>
<path d="M21.9926 7.11026C21.8187 6.9397 21.685 6.74727 21.5914 6.52861C21.4933 6.30119 21.4398 6.06066 21.4398 5.81575C21.4398 5.30844 21.6226 4.8711 21.9926 4.51249C22.1665 4.34193 22.3671 4.21073 22.5944 4.11889C22.8262 4.02267 23.0714 3.97019 23.33 3.97019C23.8471 3.97019 24.2929 4.1495 24.6629 4.51249C24.8367 4.68305 24.9705 4.87985 25.0641 5.09852C25.1622 5.32593 25.2157 5.56647 25.2157 5.81575C25.2157 6.06503 25.1844 5.97319 25.1265 6.03004C25.0641 6.09127 24.9883 6.12188 24.9036 6.12188H22.104C22.1754 6.38866 22.3225 6.60733 22.5498 6.77789C22.7772 6.95282 23.0402 7.04029 23.33 7.04029C23.7891 7.04029 24.1458 6.90034 24.3954 6.62482C24.4489 6.56359 24.5202 6.52861 24.6094 6.52423C24.6941 6.52423 24.7699 6.5461 24.8367 6.59858C24.8991 6.65543 24.9348 6.72541 24.9393 6.8085C24.9437 6.89159 24.917 6.96594 24.859 7.02717C24.4846 7.43826 23.9764 7.64818 23.33 7.64818C22.6836 7.64818 22.3626 7.46888 21.9926 7.11026ZM24.5559 5.50961C24.4846 5.23847 24.3375 5.0198 24.1146 4.84486C23.8827 4.66993 23.6242 4.58246 23.3344 4.58246C23.0447 4.58246 22.7816 4.66993 22.5498 4.84486C22.3269 5.0198 22.1798 5.24284 22.1085 5.50961H24.5603H24.5559Z" fill="white"/>
<path d="M27.4392 3.96169C27.9117 3.96169 28.3174 4.141 28.6562 4.50399C28.995 4.86261 29.1599 5.29557 29.1599 5.80725V7.35105C29.1599 7.43414 29.1287 7.50411 29.0663 7.56534C29.0083 7.62219 28.9325 7.65281 28.8478 7.65281C28.7631 7.65281 28.6874 7.62219 28.6294 7.56534C28.5715 7.50411 28.5403 7.43414 28.5403 7.35105V5.80725C28.5403 5.46613 28.4333 5.17749 28.2193 4.93695C28.0008 4.69642 27.7423 4.57834 27.4392 4.57834C27.136 4.57834 26.873 4.69642 26.659 4.93695C26.445 5.17749 26.3381 5.4705 26.3381 5.80725V7.3423C26.3381 7.42539 26.3069 7.49974 26.2489 7.55659C26.1865 7.61345 26.1152 7.64406 26.0305 7.64406C25.9458 7.64406 25.87 7.61345 25.8076 7.55659C25.7496 7.49974 25.7184 7.42539 25.7184 7.3423V4.26783C25.7184 4.18474 25.7496 4.11039 25.8076 4.05353C25.87 3.99231 25.9458 3.96169 26.0305 3.96169C26.1152 3.96169 26.1865 3.99231 26.2489 4.05353C26.3069 4.11039 26.3381 4.18474 26.3381 4.26783V4.39028C26.659 4.10602 27.0246 3.96169 27.4436 3.96169H27.4392Z" fill="white"/>
<path fill-rule="evenodd" clip-rule="evenodd" d="M31.3575 3.1871C30.7601 3.77313 30.4971 4.57345 30.5684 5.34316C30.6264 5.96855 30.9028 6.55021 31.3575 6.99629L32.0083 7.6348C32.1376 7.76163 32.3471 7.76163 32.4764 7.6348L34.1838 5.9598C34.2105 5.93356 34.2328 5.90732 34.2596 5.88108C34.6563 5.41313 33.9475 4.80961 33.5107 5.2382L32.2446 6.48023L32.0663 6.3053C31.3932 5.64492 31.3887 4.54721 32.0663 3.88246L33.6533 2.32555C33.8494 2.13312 33.8494 1.82261 33.6533 1.63456C33.4572 1.44213 33.1406 1.44213 32.949 1.63456L31.3619 3.19147L31.3575 3.1871ZM34.536 6.30092L32.9445 7.86221C32.7484 8.05464 32.7484 8.36515 32.9445 8.5532C33.1406 8.74563 33.4572 8.74563 33.6488 8.5532L35.2403 6.99192C35.8377 6.40589 36.0962 5.60993 36.0249 4.83585C35.9669 4.21483 35.695 3.63318 35.2358 3.18272L34.585 2.54421C34.4557 2.41739 34.2462 2.41739 34.1169 2.54421L32.4096 4.21921C32.3828 4.24545 32.3605 4.27169 32.3338 4.29793C31.937 4.76588 32.6458 5.3694 33.0827 4.94081L34.3487 3.69878L34.527 3.87371C35.2002 4.53409 35.2046 5.6318 34.527 6.29655L34.536 6.30092Z" fill="url(#paint0_linear_7038_925)"/>
<path d="M39.2116 3.81809C39.3158 3.76596 39.4253 3.74511 39.54 3.75554C39.6677 3.76596 39.7811 3.80897 39.8801 3.88455C39.9817 3.96013 40.0534 4.05656 40.0951 4.17384C40.1368 4.28852 40.1381 4.40971 40.099 4.53742C40.0651 4.64427 40.0039 4.74852 39.9153 4.85017C39.8293 4.9492 39.7185 5.04173 39.583 5.12773L40.228 5.9487C40.2723 5.88876 40.3049 5.80536 40.3258 5.6985C40.3466 5.58904 40.3544 5.47697 40.3492 5.36229L40.6854 5.39357C40.6828 5.54734 40.6581 5.6972 40.6112 5.84315C40.5668 5.98649 40.5069 6.10377 40.4313 6.19499L40.7636 6.59375H40.3766L40.228 6.41392C40.1525 6.48689 40.056 6.54293 39.9387 6.58202C39.8215 6.62112 39.6938 6.64066 39.5556 6.64066C39.3628 6.64066 39.1934 6.61069 39.0474 6.55075C38.9015 6.4908 38.7868 6.40219 38.7034 6.28491C38.6226 6.16763 38.5822 6.02689 38.5822 5.8627C38.5822 5.70111 38.62 5.56428 38.6956 5.45221C38.7711 5.33754 38.8975 5.21765 39.0748 5.09255C39.093 5.07952 39.11 5.06779 39.1256 5.05736L39.0865 5.00263C39.0109 4.89317 38.9549 4.78892 38.9184 4.68988C38.8819 4.58824 38.8637 4.4892 38.8637 4.39277C38.8637 4.26246 38.8949 4.14778 38.9575 4.04874C39.0226 3.9471 39.1073 3.87021 39.2116 3.81809ZM39.8254 6.29664C39.9062 6.26797 39.9674 6.22757 40.0091 6.17545L39.3289 5.30756C39.2038 5.38836 39.1034 5.47176 39.0279 5.55776C38.9523 5.64377 38.9145 5.74541 38.9145 5.8627C38.9145 5.95913 38.9405 6.04383 38.9927 6.11681C39.0474 6.18978 39.123 6.24582 39.2194 6.28491C39.3158 6.3214 39.4279 6.33964 39.5556 6.33964C39.6547 6.33964 39.7446 6.32531 39.8254 6.29664ZM39.239 4.61951C39.2728 4.6977 39.3237 4.78501 39.3914 4.88144C39.5217 4.81889 39.6234 4.74592 39.6964 4.66252C39.7693 4.57912 39.8058 4.49441 39.8058 4.40841C39.8058 4.31458 39.7798 4.2377 39.7276 4.17775C39.6781 4.1152 39.6104 4.08132 39.5243 4.07611C39.4279 4.0709 39.3471 4.10087 39.282 4.16602C39.2168 4.23118 39.1855 4.31067 39.1881 4.4045C39.1881 4.46965 39.2051 4.54132 39.239 4.61951Z" fill="white"/>
<path d="M83.5103 10.1191C83.4142 10.1191 83.3359 10.0124 83.3359 9.88223V0.313062C83.3359 0.182496 83.4142 0.0761719 83.5103 0.0761719C83.6064 0.0761719 83.6847 0.182921 83.6847 0.313062V9.88307C83.6847 10.0132 83.6073 10.1191 83.5103 10.1191Z" fill="#6F7C95"/>
<path d="M50.5831 7.45541H49.812C49.7542 7.45541 49.7074 7.40863 49.7074 7.35079V4.57999C49.7074 4.1028 49.3208 3.71621 48.844 3.71621H47.5312C47.0544 3.71621 46.6674 4.1028 46.6674 4.57999V7.35079C46.6674 7.40863 46.6206 7.45541 46.5632 7.45541H45.7921C45.7343 7.45541 45.6875 7.40863 45.6875 7.35079V4.57999C45.6875 3.56183 46.5126 2.73633 47.5307 2.73633H48.8436C49.8618 2.73633 50.6869 3.56183 50.6869 4.57999V7.35079C50.6869 7.40863 50.6401 7.45541 50.5822 7.45541" fill="#1476FB"/>
<path d="M44.6179 7.45422H43.8468C43.789 7.45422 43.7422 7.40743 43.7422 7.34959V2.84486C43.7422 2.78702 43.789 2.74023 43.8468 2.74023H44.6179C44.6757 2.74023 44.7225 2.78702 44.7225 2.84486V7.34959C44.7225 7.40743 44.6757 7.45422 44.6179 7.45422Z" fill="#1476FB"/>
<path d="M75.7819 7.45422H75.0109C74.953 7.45422 74.9062 7.40743 74.9062 7.34959V2.84486C74.9062 2.78702 74.953 2.74023 75.0109 2.74023H75.7819C75.8398 2.74023 75.8866 2.78702 75.8866 2.84486V7.34959C75.8866 7.40743 75.8398 7.45422 75.7819 7.45422Z" fill="#1476FB"/>
<path d="M73.4729 4.89301C73.6183 4.67823 73.7038 4.41923 73.7038 4.14066V4.08026C73.7038 3.33812 73.1025 2.73633 72.3603 2.73633H68.9171C68.8593 2.73633 68.8125 2.78311 68.8125 2.84053V7.35122C68.8125 7.40906 68.8593 7.45584 68.9171 7.45584H72.4926C73.2875 7.45584 73.9318 6.81152 73.9318 6.01664V5.94391C73.9318 5.52925 73.7544 5.15584 73.4729 4.89301ZM69.7924 3.71621H72.3599C72.5611 3.71621 72.7239 3.8791 72.7239 4.08026V4.14066C72.7239 4.34182 72.5611 4.50471 72.3599 4.50471H69.7924V3.71664V3.71621ZM72.9519 6.01621C72.9519 6.27011 72.7461 6.47553 72.4926 6.47553H69.7924V5.48417H72.4926C72.7465 5.48417 72.9519 5.69001 72.9519 5.94349V6.01621Z" fill="#1476FB"/>
<path d="M58.8397 2.73633H57.5268C56.9917 2.73633 56.5103 2.96429 56.1735 3.32877C55.8366 2.96471 55.3552 2.73633 54.8202 2.73633H53.5073C52.4891 2.73633 51.6641 3.56183 51.6641 4.57999V7.35079C51.6641 7.40863 51.7108 7.45541 51.7687 7.45541H52.5397C52.5972 7.45541 52.6439 7.40863 52.6439 7.35079V4.57999C52.6439 4.10323 53.0305 3.71621 53.5073 3.71621H54.8202C55.2969 3.71621 55.684 4.1028 55.684 4.57999V7.35079C55.684 7.40863 55.7307 7.45541 55.7886 7.45541H56.5596C56.6175 7.45541 56.6638 7.40863 56.6638 7.35079V4.57999C56.6638 4.1028 57.0504 3.71621 57.5276 3.71621H58.8405C59.3173 3.71621 59.7039 4.1028 59.7039 4.57999V7.35079C59.7039 7.40863 59.7506 7.45541 59.8085 7.45541H60.5795C60.6374 7.45541 60.6842 7.40863 60.6842 7.35079V4.57999C60.6842 3.56183 59.8587 2.73633 58.8409 2.73633" fill="#1476FB"/>
<mask id="mask0_7038_925" style="mask-type:luminance" maskUnits="userSpaceOnUse" x="61" y="2" width="6" height="3">
<path d="M63.3631 2.73022C62.151 2.74808 61.462 3.51404 61.4297 4.70444C61.4297 4.7121 61.4395 4.7155 61.4437 4.70869C61.8631 4.01333 62.6154 3.58889 63.4273 3.58889C63.648 3.58889 66.0837 3.59017 66.1199 3.59017C66.4384 3.59017 66.6766 3.66587 66.8458 3.79771C66.8514 3.80196 66.859 3.79601 66.8556 3.78963C66.5579 3.24525 66.0169 2.73319 65.3641 2.72852C65.3624 2.72852 63.3631 2.72979 63.3631 2.72979" fill="white"/>
</mask>
<g mask="url(#mask0_7038_925)">
<path d="M66.8594 2.72852H61.4297V4.71507H66.8594V2.72852Z" fill="url(#paint1_linear_7038_925)"/>
</g>
<mask id="mask1_7038_925" style="mask-type:luminance" maskUnits="userSpaceOnUse" x="65" y="2" width="4" height="6">
<path d="M65.9515 2.73617C65.9447 2.73617 65.943 2.74553 65.949 2.7485C66.629 3.09002 67.2236 3.76539 67.2236 5.09741C67.2236 6.42944 66.737 7.05505 65.9889 7.45228C65.983 7.45526 65.9847 7.46376 65.9915 7.46419C66.1412 7.47312 68.0801 7.55733 68.0801 5.10082C68.0801 3.36518 67.2066 2.72852 66.1544 2.72852C66.0876 2.72852 66.02 2.73107 65.9515 2.73617Z" fill="white"/>
</mask>
<g mask="url(#mask1_7038_925)">
<path d="M65.5469 2.89215L66.0181 8.41505L68.4793 7.38966L68.0085 1.86719L65.5469 2.89215Z" fill="url(#paint2_linear_7038_925)"/>
</g>
<mask id="mask2_7038_925" style="mask-type:luminance" maskUnits="userSpaceOnUse" x="61" y="3" width="6" height="5">
<path d="M62.5536 3.88256C62.1853 4.04417 61.8676 4.30275 61.635 4.63066C61.2527 5.15249 61.4002 6.30335 61.9536 6.90259C62.3197 7.29216 62.8684 7.46568 63.3728 7.45973L65.4248 7.461C65.6379 7.46185 65.848 7.40784 66.0334 7.30322C66.3924 7.09185 66.7169 6.76947 66.8764 6.38841C66.8789 6.38203 66.8713 6.3765 66.8661 6.38075C66.824 6.41562 66.6569 6.59935 65.9139 6.59935H63.3855C62.6213 6.59935 62.2963 6.21659 62.2963 5.09551C62.2963 4.22152 62.4877 3.974 62.5626 3.89404C62.5673 3.88894 62.5626 3.88086 62.5566 3.88086C62.5558 3.88086 62.5545 3.88086 62.5532 3.88171" fill="white"/>
</mask>
<g mask="url(#mask2_7038_925)">
<path d="M58.7656 6.43693L65.2548 9.12906L69.3389 4.90501L62.8497 2.21289L58.7656 6.43693Z" fill="url(#paint3_linear_7038_925)"/>
</g>
<path d="M108.37 4.61531V6.77752C108.37 6.8158 108.354 6.85024 108.329 6.87534C108.304 6.90043 108.269 6.91617 108.232 6.91617H107.016C106.977 6.91617 106.942 6.90043 106.917 6.87534C106.892 6.85024 106.877 6.81537 106.877 6.77752V4.61404C106.877 4.54216 106.868 4.47241 106.85 4.40607C106.833 4.33972 106.807 4.27678 106.774 4.21809C106.713 4.10879 106.627 4.0148 106.524 3.9442C106.421 3.8736 106.302 3.82596 106.172 3.80895C106.167 3.8081 106.163 3.80768 106.158 3.80725C106.154 3.80683 106.149 3.8064 106.144 3.80598C106.133 3.8047 106.121 3.80385 106.11 3.803C106.098 3.80215 106.086 3.80215 106.075 3.80172C105.848 3.79874 105.643 3.89316 105.494 4.04457C105.345 4.19597 105.252 4.40522 105.252 4.6319V6.77709C105.252 6.81537 105.237 6.84982 105.212 6.87491C105.186 6.9 105.152 6.91574 105.114 6.91574H103.898C103.859 6.91574 103.825 6.9 103.8 6.87491C103.774 6.84982 103.759 6.81494 103.759 6.77709V4.61149C103.759 4.60213 103.759 4.59277 103.759 4.58342C103.759 4.57406 103.759 4.5647 103.759 4.55535C103.771 4.03436 103.96 3.5542 104.267 3.17271C104.574 2.79122 105 2.5084 105.486 2.38251C105.488 2.38251 105.489 2.38166 105.491 2.38123C105.492 2.38081 105.493 2.38038 105.495 2.37996C105.767 2.31446 106.035 2.29787 106.29 2.32254C106.546 2.34721 106.789 2.41398 107.013 2.5152C107.027 2.52116 107.04 2.52753 107.054 2.53391C107.068 2.54029 107.081 2.5471 107.094 2.55348C107.101 2.55688 107.107 2.56028 107.114 2.56368C107.12 2.56709 107.127 2.57049 107.133 2.57389C107.14 2.57772 107.147 2.58112 107.154 2.58495C107.161 2.58878 107.168 2.59261 107.175 2.59643C107.531 2.79207 107.829 3.07914 108.039 3.42619C108.249 3.77323 108.369 4.17981 108.37 4.61446L108.37 4.61531ZM97.8067 6.90596H96.5908C96.5525 6.90596 96.5176 6.89065 96.4925 6.86513C96.4674 6.84004 96.4517 6.80516 96.4517 6.76689V0.139072C96.4517 0.100795 96.467 0.0659209 96.4925 0.0408284C96.5176 0.015736 96.5525 0 96.5908 0H97.8067C97.845 0 97.8798 0.0153107 97.9049 0.0408284C97.93 0.0659209 97.9457 0.100795 97.9457 0.139072V6.76731C97.9457 6.80559 97.9304 6.84046 97.9049 6.86556C97.8798 6.89065 97.845 6.90638 97.8067 6.90638V6.90596ZM95.8516 3.61544V3.62778V3.64011L95.8503 3.74558L95.849 3.85106C95.8482 3.88933 95.8346 3.92208 95.812 3.9459C95.7895 3.96971 95.7572 3.98417 95.7198 3.98673C95.7172 3.98673 95.6879 3.98673 95.6589 3.98673C95.63 3.98673 95.6019 3.98673 95.6019 3.98673H95.1677C95.2664 4.18364 95.3298 4.37842 95.3612 4.57406C95.3927 4.7697 95.3927 4.96618 95.3642 5.16607C95.3 5.61944 95.1048 6.00901 94.802 6.30374C94.4992 6.59847 94.0896 6.79793 93.5967 6.87108C93.4419 6.89405 93.2854 6.90511 93.128 6.91064C92.9706 6.91574 92.8124 6.91532 92.6542 6.91446C92.5968 6.91446 92.5394 6.91404 92.4824 6.91404C92.425 6.91404 92.368 6.91404 92.311 6.91531C92.2136 6.91702 92.1251 6.95147 92.0609 7.00845C91.9967 7.06587 91.9563 7.14583 91.955 7.23854C91.9542 7.32275 91.981 7.3908 92.035 7.43843C92.089 7.48606 92.1698 7.51243 92.2757 7.51413C92.325 7.51498 92.3944 7.51498 92.4777 7.51498C92.5611 7.51498 92.6589 7.51498 92.7656 7.51498C93.0625 7.51456 93.43 7.51371 93.7566 7.51753C94.0832 7.52136 94.369 7.52944 94.5021 7.54688C94.8811 7.59536 95.1941 7.74804 95.4233 7.9675C95.6526 8.18695 95.7976 8.4736 95.8414 8.78874C95.8665 9.07327 95.778 9.39437 95.6806 9.64912C95.5832 9.90387 95.4765 10.0923 95.4654 10.1114C95.4654 10.1114 95.4654 10.111 95.4659 10.1106C95.4663 10.1101 95.4659 10.1106 95.4663 10.1101C95.4663 10.1106 95.4659 10.111 95.4654 10.1114C95.465 10.1118 95.4646 10.1123 95.4646 10.1127C95.4535 10.1352 95.4374 10.1539 95.4165 10.1667C95.3957 10.1795 95.3706 10.1871 95.3421 10.1871C95.3421 10.1871 95.34 10.1871 95.3391 10.1875C95.3383 10.188 95.3374 10.1875 95.3366 10.1875H95.2919L95.2472 10.1867H93.9471L93.8991 10.1875C93.8982 10.1875 93.8969 10.1875 93.8961 10.1871C93.8952 10.1867 93.894 10.1867 93.8931 10.1867C93.8527 10.1863 93.8187 10.1718 93.7944 10.1476C93.7702 10.1233 93.7553 10.0893 93.7545 10.0493C93.7545 10.0493 93.7549 9.96937 93.7553 9.88473C93.7557 9.8001 93.7562 9.71036 93.7566 9.69037C93.7566 9.5547 93.7268 9.45561 93.6622 9.39096C93.5975 9.32632 93.4989 9.29527 93.3611 9.2957C93.0859 9.2957 92.8103 9.2991 92.5351 9.30208C92.2595 9.30505 91.9844 9.30803 91.7088 9.30846C91.6484 9.30846 91.588 9.30633 91.5276 9.30123C91.4676 9.29612 91.4077 9.28804 91.3481 9.27613C91.0534 9.21659 90.8046 9.10431 90.6115 8.93122C90.4189 8.75812 90.2819 8.52421 90.2117 8.22097C90.1416 7.91689 90.1654 7.6094 90.2683 7.33381C90.3717 7.05821 90.5545 6.81452 90.8025 6.6376C90.842 6.60953 90.882 6.58231 90.9224 6.55551C90.9628 6.52872 91.0032 6.50235 91.0428 6.47513C91.0513 6.46408 91.0483 6.45132 91.0423 6.44111C91.0364 6.4309 91.0279 6.42325 91.0262 6.4224C90.6179 6.177 90.358 5.86398 90.2139 5.50206C90.0697 5.14013 90.0412 4.72972 90.0969 4.28869C90.1514 3.85701 90.31 3.50019 90.5533 3.21014C90.7965 2.92008 91.124 2.69638 91.517 2.53136C91.6752 2.46459 91.8351 2.41441 91.9967 2.37868C92.1579 2.34296 92.3208 2.32169 92.4837 2.31319C92.4837 2.31319 93.2577 2.31234 94.0483 2.31148C94.8385 2.31063 95.6453 2.30978 95.71 2.30978H95.7142C95.7538 2.31106 95.7869 2.32552 95.8108 2.34934C95.8346 2.37315 95.8486 2.40675 95.8499 2.44588L95.8507 2.54072L95.8516 2.63556V2.65895L95.852 2.68234H95.8516C95.8516 2.81674 95.8516 2.97452 95.8516 3.13656C95.8516 3.2986 95.8516 3.46446 95.8516 3.61459V3.61544ZM93.8935 4.61234C93.8935 4.31973 93.7749 4.0552 93.5835 3.86339C93.3917 3.67158 93.1271 3.55335 92.8345 3.55335C92.5419 3.55335 92.2774 3.67201 92.0856 3.86339C91.8938 4.0552 91.7756 4.31973 91.7756 4.61234C91.7756 4.90494 91.8942 5.16947 92.0856 5.36128C92.2774 5.55309 92.5419 5.67132 92.8345 5.67132C93.1271 5.67132 93.3917 5.55267 93.5835 5.36128C93.7753 5.16947 93.8935 4.90494 93.8935 4.61234ZM111.873 5.1027H113.232C113.277 5.1027 113.316 5.12354 113.341 5.15544C113.366 5.18734 113.378 5.23029 113.367 5.27367C113.245 5.77892 112.957 6.21911 112.564 6.53297C112.17 6.84684 111.672 7.0344 111.13 7.0344C110.485 7.0344 109.902 6.76901 109.484 6.34202C109.066 5.91459 108.813 5.32513 108.828 4.67698C108.843 4.07093 109.095 3.51975 109.496 3.11529C109.897 2.71084 110.445 2.45268 111.051 2.43227C111.607 2.41356 112.121 2.59261 112.527 2.90435C112.934 3.21609 113.234 3.66052 113.362 4.17301C113.373 4.21681 113.362 4.25977 113.336 4.29166C113.311 4.32356 113.272 4.34483 113.227 4.34483H111.86C111.854 4.34483 111.849 4.34312 111.844 4.34057C111.84 4.33802 111.836 4.33419 111.833 4.32909C111.763 4.20745 111.662 4.10581 111.542 4.03478C111.421 3.96333 111.28 3.92251 111.13 3.92251C110.89 3.92251 110.674 4.02628 110.526 4.19129C110.377 4.35631 110.295 4.58257 110.322 4.82754C110.343 5.01679 110.431 5.18691 110.561 5.3145C110.691 5.44166 110.863 5.5263 111.053 5.54373C111.223 5.55947 111.385 5.52247 111.522 5.44677C111.659 5.37106 111.771 5.25709 111.846 5.11886C111.848 5.11376 111.852 5.10993 111.857 5.10696C111.861 5.10398 111.867 5.1027 111.873 5.1027ZM118.433 4.69697C118.434 4.76544 118.433 4.83307 118.428 4.90026C118.423 4.96703 118.416 5.03338 118.406 5.09888C118.401 5.13247 118.383 5.16139 118.359 5.18223C118.335 5.20307 118.303 5.21498 118.269 5.21498H115.18C115.238 5.33194 115.317 5.43656 115.412 5.52417C115.507 5.61178 115.618 5.68196 115.741 5.73044C115.765 5.7398 115.789 5.74873 115.814 5.75638C115.839 5.76404 115.864 5.77084 115.89 5.7768C115.895 5.77807 115.899 5.77892 115.903 5.77977C115.907 5.78062 115.912 5.78148 115.916 5.78233C115.92 5.78318 115.924 5.78403 115.929 5.78488C115.934 5.78573 115.938 5.78658 115.942 5.78743C115.952 5.78913 115.962 5.79083 115.972 5.79253C115.982 5.79381 115.992 5.79551 116.002 5.79636C116.006 5.79679 116.009 5.79721 116.012 5.79764C116.015 5.79806 116.018 5.79849 116.022 5.79849C116.027 5.79891 116.032 5.79976 116.038 5.80019C116.043 5.80061 116.048 5.80104 116.054 5.80146C116.06 5.80189 116.066 5.80231 116.071 5.80274C116.077 5.80274 116.083 5.80359 116.089 5.80359C116.096 5.80359 116.103 5.80359 116.11 5.80359C116.117 5.80359 116.124 5.80359 116.131 5.80359C116.137 5.80359 116.145 5.80359 116.152 5.80359C116.159 5.80359 116.167 5.80359 116.174 5.80274C116.179 5.80274 116.183 5.80274 116.188 5.80189C116.192 5.80104 116.196 5.80146 116.201 5.80104C116.207 5.80104 116.213 5.80019 116.219 5.79976C116.225 5.79934 116.232 5.79849 116.238 5.79806C116.242 5.79764 116.247 5.79721 116.251 5.79679C116.256 5.79636 116.26 5.79594 116.265 5.79508C116.269 5.79466 116.273 5.79423 116.278 5.79338C116.283 5.79253 116.287 5.79211 116.291 5.79126C116.393 5.77595 116.489 5.74618 116.579 5.70407C116.669 5.66197 116.751 5.60753 116.825 5.54331C116.828 5.54076 116.831 5.53906 116.834 5.53778C116.838 5.5365 116.841 5.53565 116.845 5.53565H118.087C118.138 5.53565 118.18 5.56245 118.204 5.60072C118.228 5.639 118.233 5.68876 118.211 5.73512C118.024 6.12639 117.731 6.45727 117.367 6.68863C117.004 6.92042 116.572 7.05311 116.108 7.04843C115.489 7.0429 114.924 6.78858 114.512 6.38114C114.1 5.97371 113.839 5.41274 113.826 4.79351C113.813 4.14196 114.07 3.55037 114.493 3.12337C114.915 2.69638 115.504 2.43397 116.154 2.44035C116.774 2.44673 117.337 2.70148 117.749 3.10934C118.161 3.5172 118.422 4.07816 118.434 4.6974L118.433 4.69697ZM117.078 4.15344C117.003 4.00204 116.893 3.87105 116.757 3.7711C116.623 3.67158 116.463 3.60311 116.29 3.57674C116.286 3.57589 116.282 3.57546 116.277 3.57461C116.273 3.57419 116.268 3.57334 116.264 3.57291C116.259 3.57249 116.255 3.57164 116.25 3.57121C116.245 3.57079 116.241 3.57036 116.236 3.56994C116.231 3.56909 116.224 3.56866 116.218 3.56823C116.212 3.56781 116.206 3.56738 116.2 3.56696C116.195 3.56696 116.191 3.56653 116.186 3.56611C116.182 3.56611 116.177 3.56568 116.173 3.56526C116.165 3.56526 116.158 3.56483 116.151 3.56441C116.144 3.56441 116.137 3.56441 116.129 3.56441C116.122 3.56441 116.115 3.56441 116.108 3.56441C116.102 3.56441 116.094 3.56441 116.088 3.56526C116.082 3.56526 116.076 3.56526 116.07 3.56611C116.065 3.56696 116.058 3.56696 116.053 3.56738C116.047 3.56738 116.042 3.56823 116.037 3.56866C116.031 3.56909 116.026 3.56951 116.02 3.57036C116.017 3.57036 116.014 3.57079 116.011 3.57121C116.007 3.57164 116.004 3.57206 116.001 3.57249C115.991 3.57376 115.981 3.57504 115.971 3.57632C115.961 3.57759 115.951 3.57929 115.941 3.58142C115.936 3.58227 115.932 3.58312 115.928 3.58397C115.923 3.58482 115.919 3.58567 115.915 3.58652C115.91 3.58737 115.906 3.58822 115.902 3.5895C115.898 3.59078 115.893 3.5912 115.889 3.59248C115.88 3.5946 115.871 3.59673 115.862 3.59886C115.853 3.60098 115.844 3.60353 115.836 3.60609C115.815 3.61204 115.795 3.61884 115.775 3.62565C115.755 3.63288 115.735 3.64053 115.715 3.64862C115.599 3.69795 115.493 3.7677 115.402 3.85361C115.311 3.93952 115.235 4.04116 115.179 4.15429H117.077L117.078 4.15344ZM103.15 4.61191V6.77539C103.15 6.81367 103.134 6.84812 103.109 6.87321C103.084 6.8983 103.05 6.91361 103.011 6.91361H102.045C102.007 6.91361 101.972 6.8983 101.947 6.87321C101.922 6.84812 101.907 6.81367 101.907 6.77539V6.65631C101.748 6.73839 101.579 6.80304 101.402 6.84684C101.225 6.89065 101.039 6.91404 100.848 6.91404C100.203 6.91404 99.6197 6.64865 99.2021 6.22123C98.784 5.79381 98.5314 5.20392 98.5471 4.55492C98.562 3.94802 98.8159 3.39641 99.2174 2.99196C99.6193 2.5875 100.169 2.3302 100.776 2.31148C100.987 2.3051 101.193 2.32722 101.389 2.374C101.584 2.42121 101.77 2.49309 101.943 2.58665C102.286 2.77251 102.576 3.04299 102.786 3.37047C102.997 3.69795 103.126 4.08157 103.147 4.49453C103.148 4.50389 103.148 4.51367 103.148 4.52345C103.148 4.53323 103.149 4.54259 103.149 4.55237C103.149 4.56258 103.15 4.57236 103.15 4.58257C103.15 4.59277 103.15 4.60255 103.15 4.61276V4.61191ZM101.907 4.61191C101.907 4.31931 101.788 4.05477 101.597 3.86296C101.405 3.67116 101.141 3.55292 100.848 3.55292C100.555 3.55292 100.291 3.67158 100.099 3.86296C99.9072 4.05477 99.789 4.31931 99.789 4.61191C99.789 4.90452 99.9076 5.16905 100.099 5.36086C100.291 5.55267 100.555 5.6709 100.848 5.6709C101.141 5.6709 101.405 5.55224 101.597 5.36086C101.789 5.16905 101.907 4.90452 101.907 4.61191Z" fill="url(#paint4_linear_7038_925)"/>
<path d="M122.562 1.40781C122.24 2.84106 121.872 3.70398 119.861 4.14927C119.806 4.16118 119.807 4.239 119.862 4.25049C121.545 4.592 122.167 5.21463 122.563 6.98727C122.575 7.04213 122.653 7.04128 122.664 6.98599C122.99 5.34435 123.625 4.57116 125.368 4.24581C125.423 4.2356 125.425 4.15735 125.37 4.14459C123.659 3.74694 123.028 3.19873 122.663 1.40866C122.652 1.35422 122.574 1.35295 122.563 1.40738L122.562 1.40781ZM122.586 5.11341C122.486 4.67663 122.142 4.333 121.705 4.2322C121.673 4.22497 121.673 4.17946 121.705 4.17223C122.142 4.07144 122.486 3.7278 122.586 3.29102C122.594 3.2587 122.639 3.2587 122.646 3.29102C122.747 3.7278 123.091 4.07144 123.528 4.17223C123.56 4.17946 123.56 4.22497 123.528 4.2322C123.091 4.333 122.747 4.67663 122.646 5.11341C122.639 5.14574 122.594 5.14574 122.586 5.11341Z" fill="url(#paint5_linear_7038_925)"/>
<path d="M120.97 2.66741C120.894 2.42754 120.715 2.24296 120.531 2.16981C120.503 2.15833 120.5 2.12176 120.526 2.10644C120.764 1.96695 120.906 1.44639 120.969 1.12784C120.977 1.09041 121.03 1.08999 121.038 1.12784C121.104 1.44383 121.242 1.96482 121.479 2.10602C121.504 2.1209 121.503 2.15706 121.476 2.16769C121.296 2.23914 121.117 2.42967 121.036 2.66741C121.025 2.69846 120.98 2.69846 120.97 2.66699V2.66741Z" fill="url(#paint6_linear_7038_925)"/>
<path d="M124.186 5.67147C124.245 5.83308 124.367 5.9577 124.493 6.01256C124.52 6.02404 124.524 6.05721 124.5 6.0738C124.345 6.18438 124.241 6.52334 124.189 6.75385C124.181 6.79042 124.128 6.79042 124.12 6.75385C124.07 6.52334 123.972 6.1814 123.813 6.07252C123.789 6.05636 123.793 6.02277 123.819 6.01086C123.944 5.95472 124.062 5.82883 124.122 5.66977C124.133 5.64042 124.176 5.6417 124.187 5.67147H124.186Z" fill="url(#paint7_linear_7038_925)"/>
<path d="M71.6099 41.9183C68.7561 41.9183 66.409 41.2196 64.5687 39.8222C62.7551 38.4248 61.6482 36.5657 61.2482 34.245L65.2088 33.3466C65.5022 35.0435 66.2356 36.3286 67.4092 37.202C68.5827 38.0754 70.0229 38.5121 71.7299 38.5121C72.7167 38.5121 73.5835 38.3499 74.3303 38.0255C75.1038 37.6762 75.7172 37.1895 76.1706 36.5657C76.624 35.9169 76.8507 35.1932 76.8507 34.3947C76.8507 33.5463 76.5973 32.8476 76.0906 32.2986C75.6105 31.7496 74.9171 31.263 74.0103 30.8388C73.1301 30.3896 72.0633 29.9404 70.8097 29.4912C69.1828 28.9173 67.7826 28.2935 66.609 27.6197C65.4622 26.9459 64.5687 26.1474 63.9286 25.2241C63.3152 24.2759 63.0085 23.1405 63.0085 21.8179C63.0085 20.4704 63.3552 19.2851 64.0486 18.262C64.7687 17.2139 65.7689 16.3904 67.0491 15.7915C68.3293 15.1926 69.8096 14.8932 71.4898 14.8932C73.2768 14.8932 74.8637 15.28 76.2506 16.0535C77.6642 16.8021 78.7844 17.9376 79.6112 19.4597L76.3706 21.3313C75.7839 20.3331 75.0638 19.572 74.2103 19.048C73.3835 18.524 72.4367 18.262 71.3698 18.262C70.543 18.262 69.7962 18.4117 69.1295 18.7111C68.4893 19.0106 67.9826 19.4223 67.6092 19.9464C67.2625 20.4454 67.0891 21.0443 67.0891 21.743C67.0891 22.4667 67.3025 23.0906 67.7292 23.6146C68.1826 24.1386 68.8361 24.6127 69.6895 25.037C70.5697 25.4362 71.6632 25.8604 72.9701 26.3096C74.6237 26.9085 76.0372 27.5573 77.2108 28.256C78.3843 28.9298 79.2911 29.7408 79.9312 30.689C80.5713 31.6373 80.8914 32.7976 80.8914 34.1701C80.8914 35.6674 80.4913 37.0024 79.6912 38.1752C78.9177 39.3231 77.8375 40.2339 76.4507 40.9077C75.0638 41.5814 73.4502 41.9183 71.6099 41.9183Z" fill="#3ED4F5"/>
<path d="M84.3863 41.4692V15.3798H92.9877C95.1748 15.3798 96.9484 15.6792 98.3086 16.2781C99.6955 16.877 100.709 17.7379 101.349 18.8609C102.016 19.9588 102.349 21.2689 102.349 22.7911C102.349 25.037 101.656 26.7962 100.269 28.0689C98.9087 29.3415 96.935 30.0777 94.348 30.2773C93.8945 30.3023 93.3745 30.3147 92.7877 30.3147C92.2009 30.3147 91.6542 30.3147 91.1474 30.3147H88.467V41.4692H84.3863ZM99.8288 41.4692L92.6677 29.8656L96.8284 29.379L104.51 41.4692H99.8288ZM88.467 26.9459H92.5877C93.7079 26.9459 94.6813 26.8212 95.5081 26.5716C96.3616 26.2971 97.0417 25.8604 97.5485 25.2615C98.0552 24.6627 98.3086 23.8516 98.3086 22.8285C98.3086 21.8054 98.0552 21.0069 97.5485 20.433C97.0417 19.8341 96.3616 19.4098 95.5081 19.1603C94.6547 18.9108 93.6812 18.786 92.5877 18.786H88.467V26.9459Z" fill="#3ED4F5"/>
<path d="M106.979 41.5829V15.3872H125.376V18.8073H111.049V26.4743H124.178V29.8944H111.049V38.1628H125.376V41.5829H106.979Z" fill="#3ED4F5"/>
<path d="M47.7326 63.7255V14.5879H55.1048V63.7255H47.7326Z" fill="white"/>
<path d="M0 63.7255L19.587 14.5879H25.2969L44.8116 63.7255H36.7889L22.4781 25.0217L8.095 63.7255H0ZM11.5643 52.7982L13.8049 46.3828L22.5142 44.9113L31.0067 46.3828L33.4641 52.7982L22.5142 51.4811L11.5643 52.7982Z" fill="white"/>
<path d="M116.52 63.619V47.6967H110.379V45.3057H125.41V47.6967H119.295V63.619H116.52Z" fill="white"/>
<path d="M78.5576 63.619V45.3057H90.9757V47.6967H81.3052V53.0567H90.1675V55.4476H81.3052V61.228H90.9757V63.619H78.5576Z" fill="white"/>
<path d="M61.0569 63.619V45.3057H63.9122L73.2594 60.1508H72.6129V45.3057H75.3336V63.619H72.4244L63.158 48.7476H63.8045V63.619H61.0569Z" fill="white"/>
<path d="M108.692 63.778H105.777L101.84 57.6914L102.121 57.2575L103.309 55.5847L108.692 63.778Z" fill="url(#paint8_linear_7038_925)" fill-opacity="0.973695"/>
<path d="M103.309 53.5561L102.12 51.9133L101.843 51.4811L105.661 45.5428H108.55L103.309 53.5561Z" fill="url(#paint9_linear_7038_925)" fill-opacity="0.973695"/>
<path d="M101.169 52.5332L102.645 54.5746L101.169 56.6535L96.559 63.7798H93.6443L99.0414 55.5646H93.0492V53.6286H99.0731L93.7855 45.5447H96.6745L101.169 52.5332Z" fill="url(#paint10_linear_7038_925)" fill-opacity="0.973695"/>
<defs>
<linearGradient id="paint0_linear_7038_925" x1="33.2967" y1="8.69752" x2="33.2967" y2="1.49023" gradientUnits="userSpaceOnUse">
<stop stop-color="#A134F0"/>
<stop offset="1" stop-color="#F994EB"/>
</linearGradient>
<linearGradient id="paint1_linear_7038_925" x1="61.4372" y1="3.81415" x2="66.8596" y2="3.81415" gradientUnits="userSpaceOnUse">
<stop stop-color="#A2CF70"/>
<stop offset="0.5" stop-color="#5DA1B3"/>
<stop offset="0.77" stop-color="#2F84DF"/>
<stop offset="1" stop-color="#1476F9"/>
</linearGradient>
<linearGradient id="paint2_linear_7038_925" x1="66.821" y1="2.26655" x2="68.8544" y2="7.15027" gradientUnits="userSpaceOnUse">
<stop stop-color="#FFD222"/>
<stop offset="0.02" stop-color="#FFD222"/>
<stop offset="0.15" stop-color="#DDC137"/>
<stop offset="0.56" stop-color="#7B897E"/>
<stop offset="0.9" stop-color="#2379E6"/>
<stop offset="1" stop-color="#1476F9"/>
</linearGradient>
<linearGradient id="paint3_linear_7038_925" x1="61.007" y1="4.28867" x2="65.7" y2="8.8252" gradientUnits="userSpaceOnUse">
<stop stop-color="#F94B38"/>
<stop offset="0.06" stop-color="#F94B38"/>
<stop offset="0.5" stop-color="#7E6982"/>
<stop offset="0.95" stop-color="#1476F9"/>
<stop offset="1" stop-color="#1476F9"/>
</linearGradient>
<linearGradient id="paint4_linear_7038_925" x1="126.612" y1="20.4057" x2="101.554" y2="4.31378" gradientUnits="userSpaceOnUse">
<stop offset="0.05" stop-color="#CC49C9"/>
<stop offset="0.95" stop-color="#6032FF"/>
</linearGradient>
<linearGradient id="paint5_linear_7038_925" x1="132.826" y1="10.7567" x2="107.769" y2="-5.33526" gradientUnits="userSpaceOnUse">
<stop offset="0.05" stop-color="#CC49C9"/>
<stop offset="0.95" stop-color="#6032FF"/>
</linearGradient>
<linearGradient id="paint6_linear_7038_925" x1="133.4" y1="9.85619" x2="108.342" y2="-6.2358" gradientUnits="userSpaceOnUse">
<stop offset="0.05" stop-color="#CC49C9"/>
<stop offset="0.95" stop-color="#6032FF"/>
</linearGradient>
<linearGradient id="paint7_linear_7038_925" x1="132.351" y1="11.4797" x2="107.294" y2="-4.61212" gradientUnits="userSpaceOnUse">
<stop offset="0.05" stop-color="#CC49C9"/>
<stop offset="0.95" stop-color="#6032FF"/>
</linearGradient>
<linearGradient id="paint8_linear_7038_925" x1="97.9304" y1="45.5968" x2="97.9304" y2="63.7263" gradientUnits="userSpaceOnUse">
<stop stop-color="#3FD9FB"/>
<stop offset="1" stop-color="white"/>
</linearGradient>
<linearGradient id="paint9_linear_7038_925" x1="97.9304" y1="45.5968" x2="97.9304" y2="63.7263" gradientUnits="userSpaceOnUse">
<stop stop-color="#3FD9FB"/>
<stop offset="1" stop-color="white"/>
</linearGradient>
<linearGradient id="paint10_linear_7038_925" x1="97.9304" y1="45.5968" x2="97.9304" y2="63.7263" gradientUnits="userSpaceOnUse">
<stop stop-color="#3FD9FB"/>
<stop offset="1" stop-color="white"/>
</linearGradient>
</defs>
</svg>
