<svg width="99" height="50" viewBox="0 0 99 50" fill="none" xmlns="http://www.w3.org/2000/svg">
<path d="M0.497126 5.77605C0.273463 5.62862 0.112705 5.43663 0.0183474 5.20692C-0.00611578 5.14864 -0.00611578 5.08692 0.0183474 5.03207C0.0428105 4.97378 0.088242 4.93264 0.147652 4.90864C0.207063 4.88464 0.269968 4.88464 0.325884 4.90864C0.385294 4.93264 0.427231 4.97721 0.451694 5.0355C0.511105 5.18292 0.612452 5.30635 0.755736 5.39891C0.89902 5.49148 1.05628 5.53948 1.22403 5.53948C1.39178 5.53948 1.58748 5.47777 1.72378 5.35777C1.86357 5.23435 1.93346 5.08692 1.93346 4.91893C1.93346 4.75093 1.87405 4.60008 1.75523 4.51094C1.65738 4.43894 1.45818 4.36352 1.16113 4.28466C0.822136 4.19209 0.577505 4.0961 0.430726 3.98981C0.17561 3.81153 0.0498 3.5544 0.0498 3.21841C0.0498 2.88242 0.165126 2.66642 0.392284 2.45729C0.622936 2.24472 0.89902 2.14187 1.22403 2.14187C1.54904 2.14187 1.73776 2.21729 1.94395 2.37158C2.15363 2.52586 2.29342 2.72814 2.3703 2.98527C2.38778 3.04698 2.38079 3.10527 2.35283 3.16012C2.32138 3.21498 2.27595 3.25269 2.21304 3.26983C2.15363 3.28698 2.09422 3.28012 2.03481 3.25269C1.97889 3.22184 1.94045 3.17727 1.92298 3.11555C1.87755 2.95784 1.79018 2.83099 1.66437 2.73842C1.53856 2.64585 1.39178 2.60128 1.22403 2.60128C1.05628 2.60128 0.864073 2.663 0.724284 2.78299C0.584494 2.90642 0.5146 3.05384 0.5146 3.22184C0.5146 3.38983 0.57401 3.53383 0.692831 3.61954C0.787189 3.68811 0.982894 3.76353 1.27995 3.84582C1.62243 3.93839 1.87056 4.03781 2.01733 4.14409C2.27245 4.3258 2.39826 4.58637 2.39826 4.92579C2.39826 5.2652 2.28293 5.47777 2.05578 5.68691C1.82512 5.89947 1.54904 6.00233 1.22403 6.00233C0.89902 6.00233 0.724284 5.93033 0.500621 5.7829L0.497126 5.77605Z" fill="white"/>
<path d="M4.09028 3.11231C4.15668 3.11231 4.21609 3.13631 4.26152 3.1843C4.30695 3.22887 4.33141 3.28716 4.33141 3.3523C4.33141 3.41744 4.30695 3.47572 4.26152 3.52029C4.21609 3.56829 4.15668 3.59229 4.09028 3.59229H3.70935V5.75908C3.70935 5.82422 3.68489 5.88251 3.63945 5.92708C3.59402 5.97165 3.53461 5.99565 3.46821 5.99565C3.40181 5.99565 3.3424 5.97165 3.29697 5.92708C3.24804 5.88251 3.22358 5.82422 3.22358 5.75908V3.59229H2.84615C2.77975 3.59229 2.72034 3.56829 2.67141 3.52029C2.62598 3.47572 2.60152 3.41744 2.60152 3.3523C2.60152 3.28716 2.62598 3.22887 2.67141 3.1843C2.72034 3.13631 2.77975 3.11231 2.84615 3.11231H3.22358V2.37519C3.22358 2.31004 3.24804 2.25176 3.29697 2.20719C3.3424 2.15919 3.40181 2.13519 3.46821 2.13519C3.53461 2.13519 3.59402 2.15919 3.63945 2.20719C3.68489 2.25176 3.70935 2.31004 3.70935 2.37519V3.11231H4.09028Z" fill="white"/>
<path d="M6.86799 3.11222C6.93439 3.11222 6.9938 3.13622 7.03923 3.18422C7.08466 3.22879 7.10912 3.28708 7.10912 3.35222V5.759C7.10912 5.82414 7.08466 5.88243 7.03923 5.927C6.9938 5.97157 6.93439 5.99557 6.86799 5.99557C6.80159 5.99557 6.74218 5.97157 6.69675 5.927C6.64782 5.88243 6.62336 5.82414 6.62336 5.759V5.63215C6.35077 5.87557 6.03275 5.99557 5.6658 5.99557C5.29885 5.99557 4.92492 5.855 4.64534 5.57386C4.36226 5.29273 4.21898 4.95331 4.21898 4.55561C4.21898 4.15791 4.36226 3.81506 4.64534 3.53392C4.92841 3.24936 5.2674 3.10879 5.6658 3.10879C6.0642 3.10879 6.35077 3.22879 6.62336 3.47221V3.34879C6.62336 3.28365 6.64782 3.22536 6.69675 3.18079C6.74218 3.13279 6.80159 3.10879 6.86799 3.10879V3.11222ZM5.6658 5.51901C5.9314 5.51901 6.15506 5.42644 6.34378 5.23787C6.529 5.04931 6.62336 4.82303 6.62336 4.55904C6.62336 4.29504 6.529 4.06534 6.34378 3.87677C6.15506 3.68821 5.9314 3.59564 5.6658 3.59564C5.4002 3.59564 5.17654 3.68821 4.98782 3.87677C4.79911 4.06534 4.70475 4.29504 4.70475 4.55904C4.70475 4.82303 4.79911 5.04931 4.98782 5.23787C5.17654 5.42644 5.4002 5.51901 5.6658 5.51901Z" fill="white"/>
<path d="M8.97498 3.59209C8.70938 3.59209 8.48572 3.68466 8.297 3.87323C8.10829 4.06179 8.01393 4.2915 8.01393 4.55549C8.01393 4.81949 8.10829 5.04577 8.297 5.23433C8.48572 5.4229 8.70938 5.51547 8.97498 5.51547C9.24058 5.51547 9.55511 5.38176 9.75081 5.11776C9.78926 5.06634 9.84168 5.03205 9.91157 5.02177C9.92555 5.01834 9.94302 5.01491 9.957 5.01491C10.0059 5.01491 10.0514 5.02862 10.0933 5.05948C10.1492 5.09719 10.1807 5.14862 10.1912 5.21376C10.1946 5.22747 10.1981 5.24462 10.1981 5.25833C10.1981 5.30633 10.1842 5.3509 10.1527 5.39204C9.86265 5.78974 9.47124 5.98859 8.98197 5.98859C8.49271 5.98859 8.24109 5.84803 7.96151 5.56689C7.67844 5.28576 7.53515 4.94634 7.53515 4.54864C7.53515 4.15094 7.67844 3.80809 7.96151 3.52695C8.24459 3.24239 8.58357 3.10182 8.98197 3.10182C9.38037 3.10182 9.86265 3.30067 10.1527 3.69838C10.1842 3.73952 10.1981 3.78752 10.1981 3.83552C10.1981 3.88351 10.1981 3.86294 10.1912 3.88009C10.1807 3.94523 10.1492 3.99665 10.0933 4.0378C10.0514 4.06865 10.0059 4.08237 9.957 4.08237C9.90808 4.08237 9.92905 4.08237 9.91157 4.07894C9.84517 4.06865 9.78926 4.0378 9.75081 3.98294C9.5586 3.71895 9.29999 3.58867 8.97498 3.58867V3.59209Z" fill="white"/>
<path d="M12.6347 5.5808C12.6836 5.62537 12.7081 5.68366 12.7116 5.74537C12.7151 5.81051 12.6941 5.86879 12.6452 5.92022C12.5997 5.97165 12.5368 5.99565 12.4669 5.99565C12.397 5.99565 12.3481 5.97508 12.3027 5.93051L11.0865 4.84025V5.75223C11.0865 5.81737 11.062 5.87565 11.0166 5.92365C10.9677 5.96822 10.9118 5.99222 10.8454 5.99222C10.779 5.99222 10.7196 5.96822 10.6706 5.92365C10.6252 5.87565 10.6007 5.81737 10.6007 5.75223V2.37519C10.6007 2.31004 10.6252 2.25176 10.6706 2.20376C10.7196 2.15919 10.779 2.13519 10.8454 2.13519C10.9118 2.13519 10.9677 2.15919 11.0166 2.20376C11.062 2.25176 11.0865 2.31004 11.0865 2.37519V4.1717L12.2328 3.17059C12.2817 3.12602 12.3411 3.10545 12.411 3.10888C12.4774 3.11231 12.5333 3.13973 12.5788 3.18773C12.6242 3.23573 12.6452 3.29402 12.6417 3.36258C12.6382 3.42773 12.6102 3.48258 12.5613 3.52715L11.4395 4.50769L12.6347 5.5808Z" fill="white"/>
<path d="M16.3177 3.95551C16.3841 3.95551 16.4435 3.9795 16.4924 4.02407C16.5379 4.07207 16.5623 4.13036 16.5623 4.1955V4.83662C16.5623 5.21375 16.3492 5.51546 15.9263 5.73831C15.5978 5.90973 15.2238 5.99544 14.8115 5.99544C14.3991 5.99544 13.8225 5.80688 13.445 5.42975C13.0676 5.05262 12.8754 4.60006 12.8754 4.06522C12.8754 3.53037 13.0641 3.07782 13.445 2.70069C13.8225 2.32355 14.2768 2.13156 14.8115 2.13156C15.3462 2.13156 15.5139 2.22756 15.8214 2.41612C16.129 2.60469 16.3666 2.86182 16.5344 3.18753C16.5518 3.22181 16.5588 3.25953 16.5588 3.29381C16.5588 3.3281 16.5553 3.34524 16.5449 3.36924C16.5239 3.43095 16.482 3.47552 16.4225 3.50638C16.3876 3.52352 16.3526 3.53037 16.3142 3.53037C16.2758 3.53037 16.2618 3.52695 16.2373 3.51666C16.1744 3.49609 16.1255 3.45495 16.0975 3.39666C15.9717 3.15324 15.7935 2.96125 15.5628 2.81725C15.3322 2.67669 15.0841 2.60812 14.808 2.60812C14.4096 2.60812 14.0671 2.74868 13.7875 3.03325C13.5044 3.31781 13.3612 3.66066 13.3612 4.06179C13.3612 4.46292 13.5044 4.80234 13.7875 5.0869C14.0706 5.37146 14.4096 5.51203 14.808 5.51203C15.2064 5.51203 15.3846 5.45375 15.6362 5.33718C15.9263 5.20347 16.0696 5.03547 16.0696 4.82976V4.4252H14.9023C14.8359 4.4252 14.7765 4.40121 14.7311 4.35664C14.6857 4.30864 14.6612 4.25378 14.6612 4.18864C14.6612 4.1235 14.6857 4.06522 14.7311 4.01722C14.7765 3.97265 14.8359 3.94865 14.9023 3.94865H16.3142L16.3177 3.95551Z" fill="white"/>
<path d="M17.241 5.57376C17.1047 5.44005 16.9998 5.2892 16.9265 5.11777C16.8496 4.93949 16.8076 4.75093 16.8076 4.55893C16.8076 4.16123 16.9509 3.81838 17.241 3.53725C17.3773 3.40354 17.5345 3.30069 17.7128 3.22869C17.8945 3.15326 18.0867 3.11212 18.2894 3.11212C18.6948 3.11212 19.0443 3.25269 19.3343 3.53725C19.4706 3.67096 19.5755 3.82524 19.6489 3.99666C19.7257 4.17495 19.7677 4.36351 19.7677 4.55893C19.7677 4.75436 19.7432 4.68236 19.6978 4.72693C19.6489 4.77493 19.5894 4.79893 19.523 4.79893H17.3284C17.3843 5.00806 17.4996 5.17949 17.6778 5.3132C17.8561 5.45034 18.0622 5.51891 18.2894 5.51891C18.6494 5.51891 18.9289 5.40919 19.1246 5.1932C19.1666 5.1452 19.2225 5.11777 19.2924 5.11435C19.3588 5.11435 19.4182 5.13149 19.4706 5.17263C19.5196 5.2172 19.5475 5.27205 19.551 5.3372C19.5545 5.40234 19.5335 5.46062 19.4881 5.50862C19.1945 5.8309 18.7961 5.99546 18.2894 5.99546C17.7827 5.99546 17.531 5.8549 17.241 5.57376ZM19.2505 4.31894C19.1945 4.10638 19.0792 3.93495 18.9045 3.79781C18.7228 3.66068 18.5201 3.59211 18.2929 3.59211C18.0657 3.59211 17.8596 3.66068 17.6778 3.79781C17.5031 3.93495 17.3878 4.1098 17.3318 4.31894H19.254H19.2505Z" fill="white"/>
<path d="M21.5108 3.10546C21.8812 3.10546 22.1992 3.24602 22.4648 3.53059C22.7304 3.81172 22.8597 4.15114 22.8597 4.55227V5.76252C22.8597 5.82766 22.8353 5.88252 22.7864 5.93052C22.7409 5.97509 22.6815 5.99908 22.6151 5.99908C22.5487 5.99908 22.4893 5.97509 22.4439 5.93052C22.3984 5.88252 22.374 5.82766 22.374 5.76252V4.55227C22.374 4.28485 22.2901 4.05857 22.1224 3.87001C21.9511 3.68144 21.7484 3.58887 21.5108 3.58887C21.2731 3.58887 21.0669 3.68144 20.8992 3.87001C20.7315 4.05857 20.6476 4.28828 20.6476 4.55227V5.75566C20.6476 5.8208 20.6231 5.87909 20.5777 5.92366C20.5288 5.96823 20.4728 5.99223 20.4064 5.99223C20.34 5.99223 20.2806 5.96823 20.2317 5.92366C20.1863 5.87909 20.1618 5.8208 20.1618 5.75566V3.34545C20.1618 3.28031 20.1863 3.22202 20.2317 3.17745C20.2806 3.12946 20.34 3.10546 20.4064 3.10546C20.4728 3.10546 20.5288 3.12946 20.5777 3.17745C20.6231 3.22202 20.6476 3.28031 20.6476 3.34545V3.44145C20.8992 3.2186 21.1858 3.10546 21.5143 3.10546H21.5108Z" fill="white"/>
<path fill-rule="evenodd" clip-rule="evenodd" d="M24.5825 2.49821C24.1142 2.95763 23.9081 3.58504 23.964 4.18845C24.0094 4.67872 24.2261 5.13471 24.5825 5.48441L25.0928 5.98497C25.1941 6.08439 25.3584 6.08439 25.4597 5.98497L26.7982 4.67186C26.8192 4.65129 26.8366 4.63072 26.8576 4.61015C27.1686 4.24331 26.613 3.77018 26.2705 4.10617L25.278 5.07985L25.1382 4.94271C24.6105 4.42501 24.607 3.56447 25.1382 3.04334L26.3823 1.82281C26.5361 1.67195 26.5361 1.42853 26.3823 1.28111C26.2286 1.13026 25.9804 1.13026 25.8302 1.28111L24.586 2.50164L24.5825 2.49821ZM27.0743 4.93928L25.8267 6.16325C25.6729 6.3141 25.6729 6.55752 25.8267 6.70495C25.9804 6.8558 26.2286 6.8558 26.3788 6.70495L27.6265 5.48098C28.0947 5.02157 28.2974 4.39759 28.2415 3.79075C28.1961 3.30391 27.9829 2.84792 27.623 2.49479L27.1127 1.99423C27.0114 1.8948 26.8471 1.8948 26.7458 1.99423L25.4073 3.30733C25.3863 3.3279 25.3689 3.34847 25.3479 3.36905C25.0369 3.73589 25.5925 4.20902 25.935 3.87303L26.9275 2.89935L27.0673 3.03648C27.595 3.55418 27.5985 4.41473 27.0673 4.93586L27.0743 4.93928Z" fill="url(#paint0_linear_7091_1139)"/>
<rect x="30.7812" y="3.49414" width="1" height="1" rx="0.293121" fill="#6F7C95"/>
<path d="M65.4726 7.92975C65.3973 7.92975 65.3359 7.84607 65.3359 7.74404V0.242349C65.3359 0.139993 65.3973 0.0566406 65.4726 0.0566406C65.548 0.0566406 65.6093 0.140326 65.6093 0.242349V7.74471C65.6093 7.84673 65.5487 7.92975 65.4726 7.92975Z" fill="#6F7C95"/>
<path d="M39.666 5.84208H39.0615C39.0162 5.84208 38.9795 5.80541 38.9795 5.76006V3.5879C38.9795 3.21382 38.6764 2.91075 38.3027 2.91075H37.2735C36.8997 2.91075 36.5963 3.21382 36.5963 3.5879V5.76006C36.5963 5.80541 36.5596 5.84208 36.5146 5.84208H35.9101C35.8648 5.84208 35.8281 5.80541 35.8281 5.76006V3.5879C35.8281 2.78972 36.4749 2.14258 37.2731 2.14258H38.3024C39.1005 2.14258 39.7473 2.78972 39.7473 3.5879V5.76006C39.7473 5.80541 39.7107 5.84208 39.6653 5.84208" fill="#1476FB"/>
<path d="M34.9912 5.84199H34.3867C34.3414 5.84199 34.3047 5.80531 34.3047 5.75997V2.2285C34.3047 2.18316 34.3414 2.14648 34.3867 2.14648H34.9912C35.0365 2.14648 35.0732 2.18316 35.0732 2.2285V5.75997C35.0732 5.80531 35.0365 5.84199 34.9912 5.84199Z" fill="#1476FB"/>
<path d="M59.4209 5.84199H58.8164C58.7711 5.84199 58.7344 5.80531 58.7344 5.75997V2.2285C58.7344 2.18316 58.7711 2.14648 58.8164 2.14648H59.4209C59.4662 2.14648 59.5029 2.18316 59.5029 2.2285V5.75997C59.5029 5.80531 59.4662 5.84199 59.4209 5.84199Z" fill="#1476FB"/>
<path d="M57.6144 3.83329C57.7285 3.66492 57.7955 3.46188 57.7955 3.24349V3.19615C57.7955 2.61435 57.324 2.14258 56.7422 2.14258H54.043C53.9976 2.14258 53.9609 2.17925 53.9609 2.22426V5.7604C53.9609 5.80574 53.9976 5.84241 54.043 5.84241H56.8459C57.4691 5.84241 57.9742 5.3373 57.9742 4.71416V4.65715C57.9742 4.33207 57.8351 4.03934 57.6144 3.83329ZM54.7291 2.91075H56.7419C56.8996 2.91075 57.0273 3.03845 57.0273 3.19615V3.24349C57.0273 3.4012 56.8996 3.52889 56.7419 3.52889H54.7291V2.91109V2.91075ZM57.206 4.71383C57.206 4.91287 57.0446 5.07391 56.8459 5.07391H54.7291V4.29673H56.8459C57.045 4.29673 57.206 4.4581 57.206 4.65681V4.71383Z" fill="#1476FB"/>
<path d="M46.1331 2.14258H45.1039C44.6844 2.14258 44.307 2.32129 44.0429 2.60702C43.7789 2.32162 43.4015 2.14258 42.982 2.14258H41.9528C41.1546 2.14258 40.5078 2.78972 40.5078 3.5879V5.76006C40.5078 5.80541 40.5445 5.84208 40.5898 5.84208H41.1943C41.2393 5.84208 41.276 5.80541 41.276 5.76006V3.5879C41.276 3.21415 41.5791 2.91075 41.9528 2.91075H42.982C43.3558 2.91075 43.6592 3.21382 43.6592 3.5879V5.76006C43.6592 5.80541 43.6959 5.84208 43.7412 5.84208H44.3457C44.391 5.84208 44.4274 5.80541 44.4274 5.76006V3.5879C44.4274 3.21382 44.7304 2.91075 45.1045 2.91075H46.1338C46.5075 2.91075 46.8106 3.21382 46.8106 3.5879V5.76006C46.8106 5.80541 46.8472 5.84208 46.8926 5.84208H47.4971C47.5424 5.84208 47.5791 5.80541 47.5791 5.76006V3.5879C47.5791 2.78972 46.9319 2.14258 46.1341 2.14258" fill="#1476FB"/>
<mask id="mask0_7091_1139" style="mask-type:luminance" maskUnits="userSpaceOnUse" x="48" y="2" width="5" height="2">
<path d="M49.6876 2.14196C48.7373 2.15596 48.1972 2.75643 48.1719 3.68964C48.1719 3.69564 48.1795 3.69831 48.1829 3.69298C48.5116 3.14785 49.1014 2.81511 49.7379 2.81511C49.9109 2.81511 51.8204 2.81611 51.8487 2.81611C52.0984 2.81611 52.2851 2.87546 52.4178 2.97881C52.4222 2.98215 52.4282 2.97748 52.4255 2.97248C52.1921 2.54572 51.768 2.14429 51.2562 2.14062C51.2549 2.14062 49.6876 2.14163 49.6876 2.14163" fill="white"/>
</mask>
<g mask="url(#mask0_7091_1139)">
<path d="M52.4285 2.14062H48.1719V3.69798H52.4285V2.14062Z" fill="url(#paint1_linear_7091_1139)"/>
</g>
<mask id="mask1_7091_1139" style="mask-type:luminance" maskUnits="userSpaceOnUse" x="51" y="2" width="3" height="4">
<path d="M51.708 2.14077C51.7026 2.14077 51.7013 2.1481 51.706 2.15044C52.2391 2.41816 52.7052 2.94762 52.7052 3.99185C52.7052 5.03609 52.3238 5.52653 51.7373 5.83794C51.7327 5.84027 51.734 5.84694 51.7393 5.84727C51.8567 5.85427 53.3767 5.92029 53.3767 3.99452C53.3767 2.63388 52.6919 2.13477 51.867 2.13477C51.8147 2.13477 51.7617 2.13677 51.708 2.14077Z" fill="white"/>
</mask>
<g mask="url(#mask1_7091_1139)">
<path d="M51.3984 2.2625L51.7679 6.59214L53.6973 5.7883L53.3282 1.45898L51.3984 2.2625Z" fill="url(#paint2_linear_7091_1139)"/>
</g>
<mask id="mask2_7091_1139" style="mask-type:luminance" maskUnits="userSpaceOnUse" x="48" y="3" width="5" height="3">
<path d="M49.0357 3.0404C48.747 3.16709 48.4979 3.3698 48.3155 3.62686C48.0158 4.03595 48.1315 4.93816 48.5652 5.40793C48.8523 5.71333 49.2824 5.84936 49.6778 5.8447L51.2865 5.8457C51.4536 5.84636 51.6183 5.80402 51.7636 5.722C52.045 5.5563 52.2994 5.30357 52.4245 5.00484C52.4265 4.99984 52.4204 4.9955 52.4164 4.99884C52.3834 5.02618 52.2524 5.17021 51.6699 5.17021H49.6878C49.0887 5.17021 48.834 4.87014 48.834 3.99128C48.834 3.30612 48.984 3.11208 49.0427 3.0494C49.0464 3.0454 49.0427 3.03906 49.038 3.03906C49.0374 3.03906 49.0364 3.03906 49.0354 3.03973" fill="white"/>
</mask>
<g mask="url(#mask2_7091_1139)">
<path d="M46.0781 5.04579L51.1653 7.15627L54.367 3.84485L49.2798 1.73438L46.0781 5.04579Z" fill="url(#paint3_linear_7091_1139)"/>
</g>
<path d="M84.9633 3.61815V5.3132C84.9633 5.34321 84.9509 5.37021 84.9313 5.38988C84.9116 5.40956 84.8843 5.42189 84.8546 5.42189H83.9014C83.8714 5.42189 83.844 5.40956 83.8244 5.38988C83.8047 5.37021 83.7927 5.34287 83.7927 5.3132V3.61715C83.7927 3.56081 83.7853 3.50613 83.7717 3.45411C83.758 3.4021 83.7377 3.35276 83.712 3.30675C83.664 3.22106 83.597 3.14738 83.5163 3.09203C83.4356 3.03669 83.3416 2.99935 83.2399 2.98601C83.2362 2.98534 83.2329 2.98501 83.2292 2.98467C83.2255 2.98434 83.2219 2.98401 83.2182 2.98367C83.2092 2.98267 83.2002 2.98201 83.1912 2.98134C83.1822 2.98067 83.1729 2.98067 83.1639 2.98034C82.9862 2.97801 82.8251 3.05202 82.7084 3.17072C82.5917 3.28941 82.5191 3.45345 82.5191 3.63115V5.31287C82.5191 5.34287 82.5067 5.36988 82.4871 5.38955C82.4674 5.40922 82.44 5.42156 82.4104 5.42156H81.4572C81.4271 5.42156 81.3998 5.40922 81.3801 5.38955C81.3605 5.36988 81.3485 5.34254 81.3485 5.31287V3.61515C81.3485 3.60782 81.3485 3.60048 81.3485 3.59315C81.3485 3.58581 81.3485 3.57848 81.3485 3.57114C81.3581 3.16271 81.5058 2.7863 81.7465 2.48723C81.9873 2.18816 82.321 1.96644 82.7024 1.86776C82.7034 1.86776 82.7048 1.86709 82.7058 1.86676C82.7068 1.86642 82.7081 1.86609 82.7091 1.86576C82.9228 1.81441 83.1325 1.80141 83.3329 1.82074C83.533 1.84008 83.7237 1.89243 83.8994 1.97178C83.91 1.97645 83.9207 1.98145 83.9314 1.98645C83.942 1.99145 83.9524 1.99678 83.963 2.00179C83.9684 2.00445 83.9734 2.00712 83.9784 2.00979C83.9834 2.01245 83.9887 2.01512 83.9937 2.01779C83.9991 2.02079 84.0047 2.02346 84.0101 2.02646C84.0154 2.02946 84.0207 2.03246 84.0261 2.03546C84.3051 2.18883 84.5392 2.41388 84.7036 2.68594C84.8679 2.958 84.9626 3.27674 84.9629 3.61748L84.9633 3.61815ZM76.6821 5.41389H75.7289C75.6988 5.41389 75.6715 5.40189 75.6518 5.38188C75.6322 5.36221 75.6198 5.33487 75.6198 5.30487V0.109025C75.6198 0.0790179 75.6318 0.0516783 75.6518 0.0320072C75.6715 0.0123361 75.6988 0 75.7289 0H76.6821C76.7121 0 76.7394 0.0120027 76.7591 0.0320072C76.7788 0.0516783 76.7911 0.0790179 76.7911 0.109025V5.3052C76.7911 5.33521 76.7791 5.36255 76.7591 5.38222C76.7394 5.40189 76.7121 5.41422 76.6821 5.41422V5.41389ZM75.1494 2.83431V2.84398V2.85365L75.1484 2.93633L75.1474 3.01902C75.1467 3.04902 75.1361 3.0747 75.1184 3.09337C75.1007 3.11204 75.0754 3.12337 75.046 3.12537C75.044 3.12537 75.021 3.12537 74.9984 3.12537C74.9757 3.12537 74.9537 3.12537 74.9537 3.12537H74.6133C74.6906 3.27974 74.7403 3.43244 74.765 3.58581C74.7896 3.73918 74.7896 3.89321 74.7673 4.04992C74.717 4.40533 74.5639 4.71073 74.3265 4.94178C74.0892 5.17284 73.7681 5.3292 73.3817 5.38655C73.2603 5.40456 73.1376 5.41322 73.0142 5.41756C72.8909 5.42156 72.7669 5.42123 72.6428 5.42056C72.5978 5.42056 72.5528 5.42023 72.5081 5.42023C72.4631 5.42023 72.4184 5.42023 72.3738 5.42123C72.2974 5.42256 72.2281 5.44957 72.1777 5.49424C72.1274 5.53925 72.0957 5.60193 72.0947 5.67462C72.094 5.74063 72.115 5.79398 72.1574 5.83132C72.1997 5.86866 72.2631 5.88933 72.3461 5.89067C72.3848 5.89133 72.4391 5.89133 72.5045 5.89133C72.5698 5.89133 72.6465 5.89133 72.7302 5.89133C72.9629 5.891 73.251 5.89033 73.507 5.89333C73.7631 5.89633 73.9871 5.90267 74.0915 5.91634C74.3886 5.95435 74.6339 6.07404 74.8137 6.24608C74.9934 6.41812 75.107 6.64284 75.1414 6.88989C75.1611 7.11294 75.0917 7.36466 75.0154 7.56438C74.939 7.76409 74.8553 7.91179 74.8467 7.92679C74.8467 7.92679 74.8467 7.92646 74.847 7.92613C74.8473 7.92579 74.847 7.92613 74.8473 7.92579C74.8473 7.92613 74.847 7.92646 74.8467 7.92679C74.8463 7.92713 74.846 7.92746 74.846 7.92779C74.8373 7.94546 74.8247 7.96013 74.8083 7.97013C74.792 7.98014 74.7723 7.98614 74.75 7.98614C74.75 7.98614 74.7483 7.98614 74.7476 7.98647C74.747 7.98681 74.7463 7.98647 74.7456 7.98647H74.7106L74.6756 7.98581H73.6564L73.6187 7.98647C73.618 7.98647 73.617 7.98647 73.6164 7.98614C73.6157 7.98581 73.6147 7.98581 73.614 7.98581C73.5824 7.98547 73.5557 7.97414 73.5367 7.95513C73.5177 7.93613 73.506 7.90945 73.5054 7.87811C73.5054 7.87811 73.5057 7.81543 73.506 7.74909C73.5064 7.68274 73.5067 7.61239 73.507 7.59672C73.507 7.49036 73.4837 7.41268 73.433 7.362C73.3823 7.31132 73.305 7.28698 73.197 7.28731C72.9812 7.28731 72.7652 7.28998 72.5495 7.29232C72.3334 7.29465 72.1177 7.29698 71.9017 7.29732C71.8543 7.29732 71.807 7.29565 71.7596 7.29165C71.7126 7.28765 71.6656 7.28131 71.6189 7.27198C71.3879 7.2253 71.1928 7.13728 71.0415 7.00158C70.8904 6.86589 70.7831 6.68251 70.7281 6.44479C70.673 6.2064 70.6917 5.96535 70.7724 5.7493C70.8534 5.53325 70.9968 5.34221 71.1912 5.20351C71.2222 5.1815 71.2535 5.16017 71.2852 5.13916C71.3169 5.11816 71.3485 5.09749 71.3795 5.07615C71.3862 5.06748 71.3839 5.05748 71.3792 5.04947C71.3745 5.04147 71.3679 5.03547 71.3665 5.0348C71.0465 4.84243 70.8428 4.59704 70.7297 4.31331C70.6167 4.02958 70.5944 3.70784 70.638 3.36209C70.6807 3.02368 70.8051 2.74395 70.9958 2.51657C71.1865 2.28918 71.4432 2.11381 71.7513 1.98445C71.8753 1.9321 72.0007 1.89276 72.1274 1.86475C72.2537 1.83675 72.3814 1.82008 72.5091 1.81341C72.5091 1.81341 73.1159 1.81274 73.7357 1.81208C74.3552 1.81141 74.9877 1.81074 75.0384 1.81074H75.0417C75.0727 1.81174 75.0987 1.82308 75.1174 1.84175C75.1361 1.86042 75.1471 1.88676 75.1481 1.91743L75.1487 1.99178L75.1494 2.06613V2.08447L75.1497 2.10281H75.1494C75.1494 2.20817 75.1494 2.33186 75.1494 2.45889C75.1494 2.58592 75.1494 2.71595 75.1494 2.83364V2.83431ZM73.6144 3.61582C73.6144 3.38643 73.5214 3.17905 73.3713 3.02868C73.221 2.87832 73.0136 2.78563 72.7842 2.78563C72.5548 2.78563 72.3474 2.87865 72.1971 3.02868C72.0467 3.17905 71.954 3.38643 71.954 3.61582C71.954 3.8452 72.047 4.05258 72.1971 4.20295C72.3474 4.35332 72.5548 4.446 72.7842 4.446C73.0136 4.446 73.221 4.35298 73.3713 4.20295C73.5217 4.05258 73.6144 3.8452 73.6144 3.61582ZM87.7089 4.00024H88.7748C88.8098 4.00024 88.8405 4.01657 88.8602 4.04158C88.8798 4.06659 88.8888 4.10026 88.8805 4.13427C88.7851 4.53036 88.5591 4.87544 88.2507 5.12149C87.9423 5.36755 87.5515 5.51458 87.1264 5.51458C86.621 5.51458 86.1639 5.30653 85.8361 4.97179C85.5084 4.63671 85.3104 4.17461 85.3224 3.6665C85.3337 3.19139 85.5317 2.75929 85.8458 2.44222C86.1599 2.12515 86.59 1.92277 87.0648 1.90676C87.5008 1.89209 87.9036 2.03246 88.2223 2.27685C88.5411 2.52124 88.7761 2.86965 88.8765 3.27141C88.8852 3.30575 88.8765 3.33942 88.8565 3.36443C88.8365 3.38943 88.8061 3.4061 88.7708 3.4061H87.6989C87.6946 3.4061 87.6906 3.40477 87.6869 3.40277C87.6832 3.40077 87.6802 3.39777 87.6782 3.39377C87.6232 3.29841 87.5442 3.21873 87.4495 3.16305C87.3548 3.10704 87.2445 3.07503 87.1264 3.07503C86.9387 3.07503 86.7697 3.15638 86.6533 3.28574C86.5366 3.41511 86.4726 3.59248 86.4936 3.78452C86.51 3.93289 86.5786 4.06625 86.6807 4.16628C86.7824 4.26596 86.9174 4.33231 87.0661 4.34598C87.2001 4.35832 87.3265 4.32931 87.4338 4.26997C87.5412 4.21062 87.6295 4.12126 87.6879 4.01291C87.6899 4.00891 87.6929 4.00591 87.6966 4.00357C87.7002 4.00124 87.7046 4.00024 87.7089 4.00024ZM92.8517 3.68217C92.8527 3.73584 92.8517 3.78886 92.8481 3.84154C92.8444 3.89388 92.8387 3.94589 92.8307 3.99724C92.8267 4.02358 92.813 4.04625 92.794 4.06259C92.775 4.07892 92.75 4.08826 92.7234 4.08826H90.3015C90.3472 4.17994 90.4088 4.26196 90.4835 4.33065C90.5582 4.39933 90.6452 4.45434 90.7413 4.49235C90.7603 4.49968 90.7793 4.50669 90.7989 4.51269C90.8186 4.51869 90.8383 4.52402 90.8586 4.52869C90.8619 4.52969 90.8653 4.53036 90.8686 4.53102C90.8719 4.53169 90.8753 4.53236 90.8786 4.53302C90.8819 4.53369 90.8853 4.53436 90.889 4.53503C90.8926 4.53569 90.896 4.53636 90.8993 4.53703C90.907 4.53836 90.915 4.53969 90.9226 4.54103C90.9303 4.54203 90.9383 4.54336 90.9463 4.54403C90.949 4.54436 90.9513 4.54469 90.954 4.54503C90.9566 4.54536 90.959 4.54569 90.9616 4.54569C90.966 4.54603 90.97 4.54669 90.9743 4.54703C90.9786 4.54736 90.9826 4.54769 90.987 4.54803C90.9916 4.54836 90.9963 4.54869 91.0006 4.54903C91.0053 4.54903 91.01 4.5497 91.0143 4.5497C91.0196 4.5497 91.0253 4.5497 91.0307 4.5497C91.036 4.5497 91.0417 4.5497 91.047 4.5497C91.0523 4.5497 91.0583 4.5497 91.064 4.5497C91.0697 4.5497 91.0753 4.5497 91.081 4.54903C91.0847 4.54903 91.088 4.54903 91.0917 4.54836C91.0953 4.54769 91.0987 4.54803 91.1023 4.54769C91.107 4.54769 91.112 4.54703 91.1167 4.54669C91.1213 4.54636 91.1263 4.54569 91.131 4.54536C91.1347 4.54503 91.138 4.54469 91.1417 4.54436C91.1453 4.54403 91.1487 4.54369 91.1523 4.54303C91.1557 4.54269 91.159 4.54236 91.1627 4.54169C91.1663 4.54103 91.1697 4.54069 91.173 4.54003C91.2524 4.52802 91.328 4.50468 91.3984 4.47168C91.4687 4.43867 91.5334 4.39599 91.5914 4.34565C91.5938 4.34365 91.5961 4.34231 91.5988 4.34131C91.6014 4.34031 91.6041 4.33965 91.6071 4.33965H92.5803C92.6203 4.33965 92.6537 4.36065 92.6724 4.39066C92.691 4.42067 92.6954 4.45967 92.678 4.49602C92.5317 4.80275 92.3013 5.06214 92.0165 5.24352C91.7318 5.42523 91.3931 5.52925 91.0293 5.52558C90.5439 5.52125 90.1014 5.32187 89.7784 5.00246C89.455 4.68306 89.2506 4.24329 89.2406 3.75785C89.2299 3.24707 89.4313 2.7833 89.763 2.44855C90.0944 2.11381 90.5559 1.9081 91.0657 1.9131C91.5511 1.9181 91.9929 2.11781 92.3159 2.43755C92.639 2.75729 92.8431 3.19706 92.8531 3.6825L92.8517 3.68217ZM91.7898 3.25607C91.7308 3.13738 91.6445 3.03469 91.5384 2.95634C91.4327 2.87832 91.3077 2.82464 91.172 2.80397C91.1687 2.8033 91.1653 2.80297 91.1617 2.8023C91.1583 2.80197 91.1547 2.8013 91.1513 2.80097C91.1477 2.80063 91.1443 2.79997 91.1407 2.79963C91.137 2.7993 91.1337 2.79897 91.13 2.79863C91.1253 2.79797 91.1203 2.79763 91.1157 2.7973C91.111 2.79697 91.106 2.79663 91.1013 2.7963C91.0977 2.7963 91.0943 2.79597 91.0907 2.79563C91.087 2.79563 91.0837 2.7953 91.08 2.79497C91.0743 2.79497 91.0687 2.79463 91.063 2.7943C91.0573 2.7943 91.0517 2.7943 91.046 2.7943C91.0403 2.7943 91.035 2.7943 91.0296 2.7943C91.0243 2.7943 91.0186 2.7943 91.0133 2.79497C91.0086 2.79497 91.004 2.79497 90.9996 2.79563C90.9953 2.7963 90.9903 2.7963 90.986 2.79663C90.9816 2.79663 90.9776 2.7973 90.9733 2.79763C90.969 2.79797 90.965 2.7983 90.9606 2.79897C90.958 2.79897 90.9556 2.7993 90.953 2.79963C90.9503 2.79997 90.948 2.8003 90.9453 2.80063C90.9373 2.80163 90.9296 2.80263 90.9216 2.80363C90.914 2.80463 90.906 2.80597 90.8983 2.80763C90.8946 2.8083 90.8913 2.80897 90.888 2.80964C90.8846 2.8103 90.8813 2.81097 90.8776 2.81164C90.8743 2.8123 90.8709 2.81297 90.8676 2.81397C90.8643 2.81497 90.8609 2.8153 90.8576 2.8163C90.8506 2.81797 90.8436 2.81964 90.8366 2.8213C90.8296 2.82297 90.8226 2.82497 90.8159 2.82697C90.7999 2.83164 90.7839 2.83697 90.7683 2.84231C90.7526 2.84798 90.7369 2.85398 90.7216 2.86031C90.6299 2.89899 90.5469 2.95367 90.4755 3.02102C90.4042 3.08836 90.3448 3.16805 90.3008 3.25674H91.7892L91.7898 3.25607ZM80.8707 3.61548V5.31153C80.8707 5.34154 80.8587 5.36855 80.839 5.38822C80.8193 5.40789 80.7923 5.41989 80.7623 5.41989H80.0048C79.9748 5.41989 79.9478 5.40789 79.9281 5.38822C79.9085 5.36855 79.8965 5.34154 79.8965 5.31153V5.21818C79.7721 5.28253 79.6394 5.33321 79.5007 5.36755C79.3617 5.40189 79.2163 5.42023 79.0666 5.42023C78.5608 5.42023 78.1034 5.21218 77.776 4.8771C77.4482 4.54203 77.2502 4.07959 77.2625 3.57081C77.2742 3.09503 77.4733 2.6626 77.788 2.34553C78.1031 2.02846 78.5338 1.82675 79.0096 1.81208C79.1756 1.80708 79.3367 1.82441 79.49 1.86109C79.6434 1.8981 79.7891 1.95444 79.9245 2.02779C80.1935 2.17349 80.4213 2.38554 80.586 2.64226C80.7507 2.89899 80.852 3.19972 80.8687 3.52346C80.869 3.5308 80.8694 3.53847 80.8697 3.54614C80.8697 3.5538 80.8703 3.56114 80.8703 3.56881C80.8703 3.57681 80.8707 3.58448 80.8707 3.59248C80.8707 3.60048 80.8707 3.60815 80.8707 3.61615V3.61548ZM79.8965 3.61548C79.8965 3.3861 79.8034 3.17872 79.6534 3.02835C79.503 2.87798 79.2957 2.7853 79.0663 2.7853C78.8369 2.7853 78.6295 2.87832 78.4791 3.02835C78.3288 3.17872 78.2361 3.3861 78.2361 3.61548C78.2361 3.84487 78.3291 4.05225 78.4791 4.20262C78.6295 4.35298 78.8369 4.44567 79.0663 4.44567C79.2957 4.44567 79.503 4.35265 79.6534 4.20262C79.8038 4.05225 79.8965 3.84487 79.8965 3.61548Z" fill="url(#paint4_linear_7091_1139)"/>
<path d="M96.0791 1.10216C95.8264 2.22574 95.5383 2.90223 93.9616 3.25131C93.9186 3.26065 93.9193 3.32166 93.9623 3.33066C95.2816 3.59839 95.7697 4.0865 96.0794 5.47615C96.0891 5.51916 96.1501 5.51849 96.1588 5.47515C96.4148 4.18819 96.9123 3.58205 98.2786 3.32699C98.3219 3.31899 98.3233 3.25764 98.2803 3.24764C96.9393 2.93591 96.4442 2.50614 96.1584 1.10282C96.1498 1.06015 96.0888 1.05915 96.0794 1.10182L96.0791 1.10216ZM96.0981 4.00715C96.0191 3.66474 95.7497 3.39534 95.4073 3.31632C95.3819 3.31066 95.3819 3.27498 95.4073 3.26931C95.7497 3.1903 96.0191 2.9209 96.0981 2.57849C96.1038 2.55315 96.1394 2.55315 96.1451 2.57849C96.2241 2.9209 96.4935 3.1903 96.8359 3.26931C96.8613 3.27498 96.8613 3.31066 96.8359 3.31632C96.4935 3.39534 96.2241 3.66474 96.1451 4.00715C96.1394 4.03249 96.1038 4.03249 96.0981 4.00715Z" fill="url(#paint5_linear_7091_1139)"/>
<path d="M94.8314 2.0904C94.7714 1.90236 94.6311 1.75766 94.487 1.70031C94.4647 1.69131 94.4623 1.66263 94.4827 1.65063C94.6694 1.54127 94.7808 1.13318 94.8304 0.883458C94.8364 0.854118 94.8781 0.853785 94.8841 0.883458C94.9358 1.13118 95.0441 1.53961 95.2302 1.6503C95.2499 1.66197 95.2489 1.69031 95.2275 1.69864C95.0868 1.75466 94.9461 1.90402 94.8828 2.0904C94.8744 2.11474 94.8391 2.11474 94.8314 2.09006V2.0904Z" fill="url(#paint6_linear_7091_1139)"/>
<path d="M97.352 4.44579C97.3984 4.57249 97.4937 4.67018 97.5927 4.71319C97.6134 4.72219 97.6167 4.74819 97.5984 4.7612C97.4767 4.84788 97.3947 5.11361 97.354 5.29432C97.3477 5.32299 97.3067 5.32299 97.3003 5.29432C97.2607 5.11361 97.1843 4.84555 97.0593 4.7602C97.0406 4.74753 97.0436 4.72119 97.0643 4.71185C97.162 4.66784 97.2547 4.56915 97.3017 4.44446C97.3103 4.42145 97.344 4.42245 97.3523 4.44579H97.352Z" fill="url(#paint7_linear_7091_1139)"/>
<path d="M56.1382 32.8611C53.901 32.8611 52.061 32.3134 50.6183 31.2178C49.1965 30.1223 48.3288 28.6649 48.0152 26.8456L51.1201 26.1414C51.3501 27.4716 51.9251 28.4791 52.8451 29.1638C53.7651 29.8485 54.8941 30.1908 56.2323 30.1908C57.0059 30.1908 57.6854 30.0637 58.2709 29.8093C58.8772 29.5355 59.3581 29.154 59.7136 28.6649C60.069 28.1563 60.2467 27.589 60.2467 26.963C60.2467 26.2979 60.0481 25.7501 59.6508 25.3197C59.2745 24.8894 58.7309 24.5079 58.02 24.1753C57.33 23.8232 56.4936 23.4711 55.5109 23.119C54.2355 22.669 53.1378 22.18 52.2178 21.6518C51.3187 21.1236 50.6183 20.4976 50.1165 19.7738C49.6356 19.0304 49.3952 18.1403 49.3952 17.1035C49.3952 16.0471 49.667 15.1179 50.2106 14.3158C50.7751 13.4942 51.5592 12.8486 52.5628 12.3791C53.5664 11.9096 54.7268 11.6749 56.0441 11.6749C57.445 11.6749 58.689 11.9781 59.7763 12.5845C60.8844 13.1714 61.7626 14.0615 62.4108 15.2548L59.8704 16.722C59.4104 15.9395 58.8458 15.3428 58.1768 14.932C57.5286 14.5212 56.7863 14.3158 55.95 14.3158C55.3018 14.3158 54.7164 14.4332 54.1937 14.6679C53.6919 14.9027 53.2946 15.2255 53.0019 15.6363C52.7301 16.0275 52.5942 16.497 52.5942 17.0448C52.5942 17.6121 52.7614 18.1012 53.096 18.512C53.4514 18.9228 53.9637 19.2945 54.6328 19.627C55.3227 19.94 56.18 20.2726 57.2045 20.6247C58.5009 21.0942 59.609 21.6029 60.529 22.1506C61.449 22.6788 62.1599 23.3146 62.6617 24.058C63.1635 24.8013 63.4144 25.711 63.4144 26.7869C63.4144 27.9607 63.1007 29.0073 62.4735 29.9267C61.8671 30.8266 61.0203 31.5406 59.9331 32.0688C58.8458 32.597 57.5809 32.8611 56.1382 32.8611Z" fill="#3FD9FB"/>
<path d="M66.1542 32.509V12.0563H72.8972C74.6118 12.0563 76.0022 12.2911 77.0685 12.7606C78.1558 13.2301 78.9503 13.905 79.4521 14.7853C79.9748 15.6461 80.2362 16.6731 80.2362 17.8664C80.2362 19.627 79.6925 21.0062 78.6053 22.0039C77.539 23.0016 75.9917 23.5787 73.9636 23.7352C73.6081 23.7547 73.2004 23.7645 72.7404 23.7645C72.2804 23.7645 71.8518 23.7645 71.4546 23.7645H69.3532V32.509H66.1542ZM78.2603 32.509L72.6463 23.4124L75.9081 23.0309L81.9298 32.509H78.2603ZM69.3532 21.1236H72.5836C73.4618 21.1236 74.2249 21.0258 74.8731 20.8301C75.5422 20.615 76.0754 20.2726 76.4726 19.8031C76.8699 19.3336 77.0685 18.6978 77.0685 17.8958C77.0685 17.0937 76.8699 16.4677 76.4726 16.0178C76.0754 15.5483 75.5422 15.2157 74.8731 15.0201C74.204 14.8244 73.4409 14.7266 72.5836 14.7266H69.3532V21.1236Z" fill="#3FD9FB"/>
<path d="M83.8653 32.5981V12.0622H98.2875V14.7433H87.0563V20.7539H97.3489V23.435H87.0563V29.917H98.2875V32.5981H83.8653Z" fill="#3FD9FB"/>
<path d="M37.4197 49.9567V11.4355H43.1991V49.9567H37.4197Z" fill="white"/>
<path d="M0 49.9567L15.3551 11.4355H19.8313L35.1298 49.9567H28.8404L17.6216 19.6151L6.34603 49.9567H0ZM9.06576 41.3903L10.8222 36.361L17.6499 35.2075L24.3076 36.361L26.234 41.3903L17.6499 40.3578L9.06576 41.3903Z" fill="white"/>
<path d="M91.3455 49.8732V37.391H86.5308V35.5166H98.3142V37.391H93.5206V49.8732H91.3455Z" fill="white"/>
<path d="M61.5848 49.8732V35.5166H71.3199V37.391H63.7388V41.5929H70.6864V43.4673H63.7388V47.9989H71.3199V49.8732H61.5848Z" fill="white"/>
<path d="M47.8652 49.8732V35.5166H50.1036L57.4313 47.1543H56.9245V35.5166H59.0574V49.8732H56.7767L49.5124 38.2149H50.0192V49.8732H47.8652Z" fill="white"/>
<path d="M85.2083 49.9979H82.9233L79.837 45.2263L80.0569 44.8862L80.9884 43.5748L85.2083 49.9979Z" fill="url(#paint8_linear_7091_1139)" fill-opacity="0.973695"/>
<path d="M80.9882 41.9845L80.0568 40.6966L79.8389 40.3578L82.8328 35.7025H85.0975L80.9882 41.9845Z" fill="url(#paint9_linear_7091_1139)" fill-opacity="0.973695"/>
<path d="M79.3105 41.1825L80.4681 42.7829L79.3105 44.4127L75.6969 49.9993H73.4119L77.643 43.5591H72.9454V42.0413H77.6678L73.5227 35.704H75.7874L79.3105 41.1825Z" fill="url(#paint10_linear_7091_1139)" fill-opacity="0.973695"/>
<defs>
<linearGradient id="paint0_linear_7091_1139" x1="26.1028" y1="6.81809" x2="26.1028" y2="1.16797" gradientUnits="userSpaceOnUse">
<stop stop-color="#A134F0"/>
<stop offset="1" stop-color="#F994EB"/>
</linearGradient>
<linearGradient id="paint1_linear_7091_1139" x1="48.1778" y1="2.9917" x2="52.4286" y2="2.9917" gradientUnits="userSpaceOnUse">
<stop stop-color="#A2CF70"/>
<stop offset="0.5" stop-color="#5DA1B3"/>
<stop offset="0.77" stop-color="#2F84DF"/>
<stop offset="1" stop-color="#1476F9"/>
</linearGradient>
<linearGradient id="paint2_linear_7091_1139" x1="52.3973" y1="1.77206" x2="53.9913" y2="5.60063" gradientUnits="userSpaceOnUse">
<stop stop-color="#FFD222"/>
<stop offset="0.02" stop-color="#FFD222"/>
<stop offset="0.15" stop-color="#DDC137"/>
<stop offset="0.56" stop-color="#7B897E"/>
<stop offset="0.9" stop-color="#2379E6"/>
<stop offset="1" stop-color="#1476F9"/>
</linearGradient>
<linearGradient id="paint3_linear_7091_1139" x1="47.8352" y1="3.36167" x2="51.5143" y2="6.91806" gradientUnits="userSpaceOnUse">
<stop stop-color="#F94B38"/>
<stop offset="0.06" stop-color="#F94B38"/>
<stop offset="0.5" stop-color="#7E6982"/>
<stop offset="0.95" stop-color="#1476F9"/>
<stop offset="1" stop-color="#1476F9"/>
</linearGradient>
<linearGradient id="paint4_linear_7091_1139" x1="99.2638" y1="15.9969" x2="79.6201" y2="3.38177" gradientUnits="userSpaceOnUse">
<stop offset="0.05" stop-color="#CC49C9"/>
<stop offset="0.95" stop-color="#6032FF"/>
</linearGradient>
<linearGradient id="paint5_linear_7091_1139" x1="104.126" y1="8.43115" x2="84.4818" y2="-4.18404" gradientUnits="userSpaceOnUse">
<stop offset="0.05" stop-color="#CC49C9"/>
<stop offset="0.95" stop-color="#6032FF"/>
</linearGradient>
<linearGradient id="paint6_linear_7091_1139" x1="104.575" y1="7.726" x2="84.9315" y2="-4.88923" gradientUnits="userSpaceOnUse">
<stop offset="0.05" stop-color="#CC49C9"/>
<stop offset="0.95" stop-color="#6032FF"/>
</linearGradient>
<linearGradient id="paint7_linear_7091_1139" x1="103.753" y1="8.99915" x2="84.1094" y2="-3.61597" gradientUnits="userSpaceOnUse">
<stop offset="0.05" stop-color="#CC49C9"/>
<stop offset="0.95" stop-color="#6032FF"/>
</linearGradient>
<linearGradient id="paint8_linear_7091_1139" x1="76.7721" y1="35.7448" x2="76.7721" y2="49.9573" gradientUnits="userSpaceOnUse">
<stop stop-color="#3FD9FB"/>
<stop offset="1" stop-color="white"/>
</linearGradient>
<linearGradient id="paint9_linear_7091_1139" x1="76.7721" y1="35.7448" x2="76.7721" y2="49.9573" gradientUnits="userSpaceOnUse">
<stop stop-color="#3FD9FB"/>
<stop offset="1" stop-color="white"/>
</linearGradient>
<linearGradient id="paint10_linear_7091_1139" x1="76.7721" y1="35.7448" x2="76.7721" y2="49.9573" gradientUnits="userSpaceOnUse">
<stop stop-color="#3FD9FB"/>
<stop offset="1" stop-color="white"/>
</linearGradient>
</defs>
</svg>
